<svg width="25" height="25" viewBox="0 0 25 25" fill="none" xmlns="http://www.w3.org/2000/svg">
<g clip-path="url(#clip0_1384_59)">
<path d="M12.5 25C19.4036 25 25 19.4036 25 12.5C25 5.59644 19.4036 0 12.5 0C5.59644 0 0 5.59644 0 12.5C0 19.4036 5.59644 25 12.5 25Z" fill="url(#paint0_linear_1384_59)"/>
<path d="M18.2734 11.3066C18.2974 11.2812 18.3134 11.2493 18.3195 11.2149C18.3255 11.1805 18.3213 11.1451 18.3073 11.113C18.2934 11.081 18.2703 11.0537 18.2411 11.0347C18.2118 11.0156 18.1775 11.0056 18.1426 11.0058H12.6699C12.3359 11.0058 12.3906 10.8262 12.5098 10.6074C12.6289 10.3867 15.6563 4.86521 15.6563 4.86521C15.6699 4.83592 15.6777 4.80662 15.6777 4.77342C15.6777 4.73182 15.6653 4.69117 15.6422 4.65657C15.6191 4.62196 15.5864 4.59494 15.548 4.57888C15.5096 4.56282 15.4674 4.55845 15.4265 4.5663C15.3857 4.57415 15.348 4.59388 15.3184 4.62303L6.73828 13.1738C6.70117 13.209 6.67969 13.2558 6.67969 13.3105C6.67969 13.414 6.76367 13.498 6.86719 13.498H12.7207C13.0879 13.498 12.957 13.709 12.8672 13.832C12.7773 13.9551 8.3457 20.082 8.3457 20.082C8.32096 20.1147 8.30584 20.1537 8.30203 20.1945C8.29822 20.2354 8.30587 20.2765 8.32413 20.3132C8.3424 20.3499 8.37054 20.3808 8.4054 20.4024C8.44027 20.424 8.48047 20.4355 8.52148 20.4355C8.58203 20.4355 8.63672 20.4121 8.67578 20.373C8.71484 20.334 18.2715 11.3144 18.2715 11.3144L18.2734 11.3125L18.2773 11.3086L18.2734 11.3066Z" fill="white"/>
</g>
<defs>
<linearGradient id="paint0_linear_1384_59" x1="12.5" y1="0" x2="12.5" y2="25" gradientUnits="userSpaceOnUse">
<stop stop-color="#7ACBD4"/>
<stop offset="1" stop-color="#29C6B7"/>
</linearGradient>
<clipPath id="clip0_1384_59">
<rect width="25" height="25" fill="white"/>
</clipPath>
</defs>
</svg>
