<svg width="2400" height="1151" viewBox="0 0 2400 1151" fill="none" xmlns="http://www.w3.org/2000/svg">
<path d="M966.569 547.831C1003.81 547.831 1020.42 571.99 1025.96 593.632L1078.3 574.507C1068.24 535.249 1032 493.978 966.066 493.978C895.603 493.978 840.743 548.335 840.743 623.83C840.743 698.319 895.603 754.186 967.576 754.186C1032 754.186 1068.74 712.412 1080.32 674.161L1028.98 655.538C1023.44 674.161 1005.83 700.836 967.576 700.836C930.834 700.836 899.126 673.154 899.126 623.83C899.126 574.507 930.834 547.831 966.569 547.831ZM1170.42 602.692C1171.42 571.487 1189.04 547.328 1221.25 547.328C1257.99 547.328 1271.58 571.487 1271.58 601.685V746.636H1329.96V591.619C1329.96 537.765 1300.77 494.481 1240.37 494.481C1214.71 494.481 1187.02 503.541 1170.42 525.183V382.245H1112.03V746.636H1170.42V602.692ZM1365.81 680.2C1365.81 718.955 1397.52 754.186 1448.85 754.186C1488.61 754.186 1512.77 734.054 1524.35 715.431C1524.35 735.06 1526.36 745.126 1526.86 746.636H1581.22C1580.72 744.12 1578.2 729.524 1578.2 707.379V585.579C1578.2 536.759 1549.51 493.978 1474.02 493.978C1413.62 493.978 1375.37 531.726 1370.84 574.003L1424.19 586.083C1426.71 561.421 1443.82 541.792 1474.52 541.792C1506.73 541.792 1520.82 558.401 1520.82 579.036C1520.82 587.592 1516.8 594.639 1502.71 596.652L1439.79 606.215C1398.02 612.254 1365.81 636.413 1365.81 680.2ZM1459.92 708.385C1436.77 708.385 1424.19 693.286 1424.19 676.677C1424.19 656.545 1438.79 646.479 1456.9 643.459L1520.82 633.896V644.969C1520.82 692.783 1492.64 708.385 1459.92 708.385ZM1858.15 501.528H1780.64L1686.53 600.678V382.245H1628.65V746.636H1686.53V678.187L1716.72 646.479L1788.7 746.636H1860.16L1757.49 605.208L1858.15 501.528ZM2025.72 500.018C2023.21 499.514 2017.17 498.508 2010.12 498.508C1977.91 498.508 1950.73 514.11 1939.16 540.785V501.528H1882.28V746.636H1940.67V629.87C1940.67 584.069 1961.3 557.897 2006.6 557.897C2012.64 557.897 2019.18 558.401 2025.72 559.407V500.018ZM2039.72 680.2C2039.72 718.955 2071.43 754.186 2122.77 754.186C2162.53 754.186 2186.69 734.054 2198.26 715.431C2198.26 735.06 2200.28 745.126 2200.78 746.636H2255.14C2254.63 744.12 2252.12 729.524 2252.12 707.379V585.579C2252.12 536.759 2223.43 493.978 2147.93 493.978C2087.54 493.978 2049.28 531.726 2044.75 574.003L2098.1 586.082C2100.62 561.421 2117.73 541.792 2148.44 541.792C2180.65 541.792 2194.74 558.401 2194.74 579.036C2194.74 587.592 2190.71 594.639 2176.62 596.652L2113.71 606.215C2071.93 612.254 2039.72 636.413 2039.72 680.2ZM2133.84 708.385C2110.69 708.385 2098.1 693.286 2098.1 676.677C2098.1 656.545 2112.7 646.479 2130.82 643.459L2194.74 633.896V644.969C2194.74 692.783 2166.55 708.385 2133.84 708.385Z" fill="white"/>
<path d="M688.483 575.741C688.483 425.663 566.82 304 416.741 304C266.663 304 145 425.663 145 575.741C145 725.82 266.663 847.483 416.741 847.483C566.82 847.483 688.483 725.82 688.483 575.741Z" fill="url(#paint0_linear_1317_96)"/>
<path d="M292.096 587.341L477.328 403.383C480.788 399.947 486.358 404.129 484.022 408.41L415.08 534.769C413.54 537.586 415.581 541.024 418.791 541.024H537.934C541.772 541.024 543.625 545.725 540.819 548.345L332.037 743.2C328.294 746.693 322.722 741.77 325.727 737.625L424.56 601.283C426.586 598.487 424.589 594.571 421.136 594.571H295.076C291.301 594.571 289.417 590.001 292.096 587.341Z" fill="white"/>
<defs>
<linearGradient id="paint0_linear_1317_96" x1="416.742" y1="304" x2="416.742" y2="847.483" gradientUnits="userSpaceOnUse">
<stop stop-color="#FAF8F8"/>
<stop offset="1" stop-color="#DFDDDD"/>
</linearGradient>
</defs>
</svg>
