<svg width="23" height="25" viewBox="0 0 23 25" fill="none" xmlns="http://www.w3.org/2000/svg">
<g clip-path="url(#clip0_1384_64)">
<path d="M7.55476 17.3683C6.23071 16.1221 5.4519 14.4087 5.4519 12.4615C5.4519 10.5144 6.23071 8.80097 7.4769 7.55478C8.5673 6.46446 8.5673 4.75097 7.4769 3.66057C6.38651 2.57017 4.6731 2.57017 3.5827 3.66057C1.4019 5.91922 0 9.03462 0 12.4615C0 15.8884 1.4019 19.0038 3.66055 21.2625C4.75095 22.3529 6.46445 22.3529 7.55476 21.2625C8.5673 20.1721 8.5673 18.4586 7.55476 17.3683Z" fill="#FAE501"/>
<path d="M7.55478 7.55476C8.80097 6.23071 10.5144 5.4519 12.4615 5.4519C14.4087 5.4519 16.1221 6.23071 17.3683 7.4769C18.4586 8.5673 20.1721 8.5673 21.2625 7.4769C22.3529 6.38651 22.3529 4.6731 21.2625 3.5827C19.0038 1.4019 15.8884 0 12.4615 0C9.03462 0 5.91922 1.4019 3.66057 3.66055C2.57017 4.75095 2.57017 6.46445 3.66057 7.55476C4.75097 8.5673 6.46446 8.5673 7.55478 7.55476Z" fill="#4FB5E1"/>
<path d="M17.3683 17.3683C16.1221 18.6923 14.4087 19.4711 12.4615 19.4711C10.5144 19.4711 8.80097 18.6923 7.55478 17.4461C6.46446 16.3558 4.75097 16.3558 3.66057 17.4461C2.57017 18.5365 2.57017 20.25 3.66057 21.3404C5.91922 23.5211 9.03462 24.9231 12.4615 24.9231C15.8884 24.9231 19.0038 23.5212 21.2625 21.2625C22.3529 20.1721 22.3529 18.4586 21.2625 17.3683C20.1721 16.3558 18.4586 16.3558 17.3683 17.3683Z" fill="#F05751"/>
<path d="M5.60779 8.33374C7.11329 8.33374 8.33374 7.11329 8.33374 5.60779C8.33374 4.10229 7.11329 2.88184 5.60779 2.88184C4.10229 2.88184 2.88184 4.10229 2.88184 5.60779C2.88184 7.11329 4.10229 8.33374 5.60779 8.33374Z" fill="#0681B6"/>
<path d="M5.60779 22.0413C7.11329 22.0413 8.33374 20.8208 8.33374 19.3153C8.33374 17.8098 7.11329 16.5894 5.60779 16.5894C4.10229 16.5894 2.88184 17.8098 2.88184 19.3153C2.88184 20.8208 4.10229 22.0413 5.60779 22.0413Z" fill="#CD4739"/>
</g>
<defs>
<clipPath id="clip0_1384_64">
<rect width="22.1453" height="25" fill="white"/>
</clipPath>
</defs>
</svg>
