<svg width="2186" height="1151" viewBox="0 0 2186 1151" fill="none" xmlns="http://www.w3.org/2000/svg">
<mask id="path-1-outside-1_1317_94" maskUnits="userSpaceOnUse" x="127.546" y="343.061" width="1936" height="464" fill="black">
<rect fill="white" x="127.546" y="343.061" width="1936" height="464"/>
<path d="M728.667 800.962V358.882H751.438V428.421C754.126 425.338 756.61 422.062 758.87 418.619C777.888 377.068 818.001 350.844 861.794 351.362C913.712 349.731 955.901 369.97 980.694 418.619C996.471 448.841 1005.15 482.6 1006.01 517.077C1006.88 551.553 999.894 585.746 985.649 616.802C962.55 671.321 905.496 698.427 844.415 688.471C825.406 686.769 807.105 680.08 791.182 669.016C775.259 657.951 762.221 642.862 753.259 625.127V800.942L728.667 800.962ZM751.438 515.264L756.538 567.174C765.537 626.259 798.71 661.173 850.791 667.733C875.249 671.968 900.345 667.139 921.8 654.07C943.256 641.002 959.743 620.502 968.453 596.064C988.71 545.229 987.216 487.679 964.445 438.032C955.15 416.126 939.336 398.002 919.394 386.398C899.452 374.793 876.465 370.34 853.906 373.71C832.732 375.333 812.563 383.859 796.201 398.105C779.839 412.351 768.096 431.61 762.604 453.206C757.755 473.643 754.026 494.357 751.438 515.245V515.264ZM1470.96 575.346C1467.51 606.473 1453.44 635.219 1431.36 656.239C1409.29 677.259 1380.72 689.122 1350.97 689.622C1255.47 694.686 1210.66 627.909 1203.54 550.849C1198.59 509.002 1205.04 466.534 1222.14 428.402C1234.04 402.244 1253.54 380.755 1277.82 367.048C1302.09 353.342 1329.88 348.13 1357.16 352.168C1383.09 354.489 1407.67 365.339 1427.42 383.182C1447.18 401.026 1461.1 424.959 1467.22 451.595C1472.08 475.859 1475.65 500.387 1477.92 525.067H1227.13C1222.48 594.933 1258.13 651.101 1308.67 664.645C1371.61 680.951 1425.4 652.233 1444.93 589.216C1449.26 573.044 1457.17 570.762 1471.12 575.346H1470.96ZM1226.95 502.699H1451.27C1449.86 428.268 1405.85 374.171 1346.16 373.557C1278.76 372.406 1229.88 424.335 1226.95 502.699ZM1517.32 576.977H1539.31C1540.12 594.035 1545.38 610.528 1554.51 624.642C1563.64 638.755 1576.3 649.942 1591.08 656.972C1609.64 665.768 1629.85 670.042 1650.19 669.478C1670.54 668.913 1690.5 663.524 1708.6 653.71C1718.46 649.034 1726.72 641.281 1732.27 631.5C1737.81 621.719 1740.37 610.381 1739.6 599.019C1740.17 588.061 1737.33 577.206 1731.51 568.102C1725.69 558.997 1717.21 552.139 1707.36 548.567C1683.17 539.09 1657.44 533.872 1632.8 525.547C1607.15 517.857 1582.07 508.201 1557.76 496.656C1518.05 476.245 1515.59 396.75 1560.55 371.581C1583.57 357.902 1609.48 350.51 1635.91 350.081C1662.34 349.652 1688.45 356.2 1711.86 369.126C1740.89 386.007 1756.94 420.096 1752.17 454.683H1733.32C1733.32 453.724 1731.6 452.88 1731.6 451.902C1729.27 388.597 1678.74 368.799 1624.49 374.363C1608.09 376.281 1592.56 381.499 1577.98 389.211C1569.22 393.424 1561.92 400.4 1557.09 409.174C1552.26 417.948 1550.14 428.086 1551.02 438.186C1551.04 448.292 1554.03 458.145 1559.58 466.389C1565.13 474.634 1572.98 480.865 1582.03 484.226C1605.71 493.376 1630.85 499.246 1655.35 506.421L1714.55 522.727C1728.01 527.378 1739.81 536.221 1748.39 548.086C1756.97 559.952 1761.93 574.28 1762.61 589.178C1767.34 622.653 1751.13 655.552 1722.46 670.803C1670.69 701.649 1585.41 693.497 1547.43 654.497C1528 633.913 1517.16 605.963 1517.38 576.958L1517.32 576.977ZM2041.6 454.702H2020.98C2020.98 451.767 2019.88 448.947 2019.57 446.703C2019.24 430.425 2013.61 414.762 2003.62 402.338C1993.62 389.915 1979.88 381.487 1964.69 378.468C1936.03 369.812 1905.46 371.363 1877.72 382.88C1866.75 386.185 1857.1 393.14 1850.19 402.704C1843.29 412.269 1839.51 423.929 1839.43 435.941C1839.04 447.736 1842.52 459.312 1849.3 468.711C1856.08 478.111 1865.73 484.756 1876.63 487.525L1970.88 513.001C1981.07 515.575 1991.11 518.791 2000.94 522.631C2030.99 534.141 2051.4 563.53 2052.31 597.12C2052.76 613.561 2048.48 629.762 2040.02 643.594C2031.57 657.425 2019.34 668.241 2004.94 674.62C1983.07 685.085 1959.36 690.621 1935.33 690.876C1911.31 691.13 1887.49 686.096 1865.42 676.097C1847.27 667.855 1831.95 653.955 1821.53 636.268C1811.11 618.58 1806.08 597.955 1807.13 577.169H1827.28C1834.86 615.631 1859.94 647.668 1894.35 662.822C1928.76 677.977 1968.06 674.256 1999.35 652.924C2008.74 647.782 2016.54 639.914 2021.81 630.252C2027.09 620.589 2029.62 609.538 2029.12 598.405C2029.59 587.439 2026.64 576.612 2020.74 567.566C2014.83 558.52 2006.29 551.749 1996.4 548.279C1972.21 538.802 1946.49 533.757 1921.84 525.259C1896.05 517.688 1870.82 508.141 1846.35 496.695C1807.59 476.61 1804.49 397.766 1848.68 372.617C1871.99 358.363 1898.4 350.706 1925.35 350.39C1952.3 350.074 1978.87 357.11 2002.47 370.814C2015.97 379.298 2026.83 391.732 2033.74 406.602C2040.65 421.473 2043.3 438.138 2041.38 454.568L2041.6 454.702ZM691.195 681.641C683.078 684.874 674.118 684.865 666.006 681.617C657.895 678.369 651.193 672.107 647.165 664.012L567.012 547.281L555.39 530.975L462.375 664.184C458.584 671.931 452.245 677.96 444.541 681.144C436.838 684.329 428.297 684.451 420.514 681.488L540.343 512.195L428.857 359.227C445.398 352.935 463.833 359.764 473.032 375.533L556.1 493.702L639.66 375.993C643.479 368.379 649.823 362.509 657.484 359.499C665.146 356.489 673.59 356.549 681.212 359.668L637.948 420.115L579.345 500.436C577.718 501.965 576.417 503.839 575.526 505.935C574.635 508.031 574.174 510.301 574.174 512.598C574.174 514.894 574.635 517.165 575.526 519.26C576.417 521.356 577.718 523.23 579.345 524.76L690.958 681.641H691.195ZM1199.99 357.596V380.616C1184.31 379.533 1168.59 381.925 1153.84 387.635C1139.09 393.346 1125.64 402.25 1114.37 413.772C1103.09 425.294 1094.23 439.178 1088.36 454.529C1082.5 469.879 1079.75 486.354 1080.3 502.891C1080.3 556.655 1080.3 610.42 1080.3 664.184V682.466H1058.13V359.035H1079.99V425.314C1106.81 376.972 1148.2 359.035 1200.13 357.731L1199.99 357.596ZM133.583 510.085L143.347 459.306C170.162 358.901 279.462 317.12 354.66 379.312C398.69 415.722 409.675 467.306 407.525 525.431H159.469C155.461 629.252 226.597 691.943 317.589 659.945C347.574 648.435 370.144 622.192 377.577 589.58C382.386 573.275 390.329 570.474 404.865 575.193C402.441 595.069 395.769 614.108 385.35 630.878C374.931 647.647 361.038 661.711 344.714 672.011C317.745 687.543 286.804 693.697 256.313 689.593C225.823 685.49 197.345 671.339 174.953 649.164C152.801 622.94 139.43 589.791 136.825 554.782C136.825 549.027 135.004 543.656 133.729 538.476C133.607 528.795 133.546 519.331 133.546 510.085H133.583ZM159.778 503.064H384.098C382.696 427.807 337.591 374.42 277.44 373.921C210.475 372.962 162.566 425.179 159.614 502.738L159.778 503.064Z"/>
</mask>
<path d="M728.667 800.962V358.882H751.438V428.421C754.126 425.338 756.61 422.062 758.87 418.619C777.888 377.068 818.001 350.844 861.794 351.362C913.712 349.731 955.901 369.97 980.694 418.619C996.471 448.841 1005.15 482.6 1006.01 517.077C1006.88 551.553 999.894 585.746 985.649 616.802C962.55 671.321 905.496 698.427 844.415 688.471C825.406 686.769 807.105 680.08 791.182 669.016C775.259 657.951 762.221 642.862 753.259 625.127V800.942L728.667 800.962ZM751.438 515.264L756.538 567.174C765.537 626.259 798.71 661.173 850.791 667.733C875.249 671.968 900.345 667.139 921.8 654.07C943.256 641.002 959.743 620.502 968.453 596.064C988.71 545.229 987.216 487.679 964.445 438.032C955.15 416.126 939.336 398.002 919.394 386.398C899.452 374.793 876.465 370.34 853.906 373.71C832.732 375.333 812.563 383.859 796.201 398.105C779.839 412.351 768.096 431.61 762.604 453.206C757.755 473.643 754.026 494.357 751.438 515.245V515.264ZM1470.96 575.346C1467.51 606.473 1453.44 635.219 1431.36 656.239C1409.29 677.259 1380.72 689.122 1350.97 689.622C1255.47 694.686 1210.66 627.909 1203.54 550.849C1198.59 509.002 1205.04 466.534 1222.14 428.402C1234.04 402.244 1253.54 380.755 1277.82 367.048C1302.09 353.342 1329.88 348.13 1357.16 352.168C1383.09 354.489 1407.67 365.339 1427.42 383.182C1447.18 401.026 1461.1 424.959 1467.22 451.595C1472.08 475.859 1475.65 500.387 1477.92 525.067H1227.13C1222.48 594.933 1258.13 651.101 1308.67 664.645C1371.61 680.951 1425.4 652.233 1444.93 589.216C1449.26 573.044 1457.17 570.762 1471.12 575.346H1470.96ZM1226.95 502.699H1451.27C1449.86 428.268 1405.85 374.171 1346.16 373.557C1278.76 372.406 1229.88 424.335 1226.95 502.699ZM1517.32 576.977H1539.31C1540.12 594.035 1545.38 610.528 1554.51 624.642C1563.64 638.755 1576.3 649.942 1591.08 656.972C1609.64 665.768 1629.85 670.042 1650.19 669.478C1670.54 668.913 1690.5 663.524 1708.6 653.71C1718.46 649.034 1726.72 641.281 1732.27 631.5C1737.81 621.719 1740.37 610.381 1739.6 599.019C1740.17 588.061 1737.33 577.206 1731.51 568.102C1725.69 558.997 1717.21 552.139 1707.36 548.567C1683.17 539.09 1657.44 533.872 1632.8 525.547C1607.15 517.857 1582.07 508.201 1557.76 496.656C1518.05 476.245 1515.59 396.75 1560.55 371.581C1583.57 357.902 1609.48 350.51 1635.91 350.081C1662.34 349.652 1688.45 356.2 1711.86 369.126C1740.89 386.007 1756.94 420.096 1752.17 454.683H1733.32C1733.32 453.724 1731.6 452.88 1731.6 451.902C1729.27 388.597 1678.74 368.799 1624.49 374.363C1608.09 376.281 1592.56 381.499 1577.98 389.211C1569.22 393.424 1561.92 400.4 1557.09 409.174C1552.26 417.948 1550.14 428.086 1551.02 438.186C1551.04 448.292 1554.03 458.145 1559.58 466.389C1565.13 474.634 1572.98 480.865 1582.03 484.226C1605.71 493.376 1630.85 499.246 1655.35 506.421L1714.55 522.727C1728.01 527.378 1739.81 536.221 1748.39 548.086C1756.97 559.952 1761.93 574.28 1762.61 589.178C1767.34 622.653 1751.13 655.552 1722.46 670.803C1670.69 701.649 1585.41 693.497 1547.43 654.497C1528 633.913 1517.16 605.963 1517.38 576.958L1517.32 576.977ZM2041.6 454.702H2020.98C2020.98 451.767 2019.88 448.947 2019.57 446.703C2019.24 430.425 2013.61 414.762 2003.62 402.338C1993.62 389.915 1979.88 381.487 1964.69 378.468C1936.03 369.812 1905.46 371.363 1877.72 382.88C1866.75 386.185 1857.1 393.14 1850.19 402.704C1843.29 412.269 1839.51 423.929 1839.43 435.941C1839.04 447.736 1842.52 459.312 1849.3 468.711C1856.08 478.111 1865.73 484.756 1876.63 487.525L1970.88 513.001C1981.07 515.575 1991.11 518.791 2000.94 522.631C2030.99 534.141 2051.4 563.53 2052.31 597.12C2052.76 613.561 2048.48 629.762 2040.02 643.594C2031.57 657.425 2019.34 668.241 2004.94 674.62C1983.07 685.085 1959.36 690.621 1935.33 690.876C1911.31 691.13 1887.49 686.096 1865.42 676.097C1847.27 667.855 1831.95 653.955 1821.53 636.268C1811.11 618.58 1806.08 597.955 1807.13 577.169H1827.28C1834.86 615.631 1859.94 647.668 1894.35 662.822C1928.76 677.977 1968.06 674.256 1999.35 652.924C2008.74 647.782 2016.54 639.914 2021.81 630.252C2027.09 620.589 2029.62 609.538 2029.12 598.405C2029.59 587.439 2026.64 576.612 2020.74 567.566C2014.83 558.52 2006.29 551.749 1996.4 548.279C1972.21 538.802 1946.49 533.757 1921.84 525.259C1896.05 517.688 1870.82 508.141 1846.35 496.695C1807.59 476.61 1804.49 397.766 1848.68 372.617C1871.99 358.363 1898.4 350.706 1925.35 350.39C1952.3 350.074 1978.87 357.11 2002.47 370.814C2015.97 379.298 2026.83 391.732 2033.74 406.602C2040.65 421.473 2043.3 438.138 2041.38 454.568L2041.6 454.702ZM691.195 681.641C683.078 684.874 674.118 684.865 666.006 681.617C657.895 678.369 651.193 672.107 647.165 664.012L567.012 547.281L555.39 530.975L462.375 664.184C458.584 671.931 452.245 677.96 444.541 681.144C436.838 684.329 428.297 684.451 420.514 681.488L540.343 512.195L428.857 359.227C445.398 352.935 463.833 359.764 473.032 375.533L556.1 493.702L639.66 375.993C643.479 368.379 649.823 362.509 657.484 359.499C665.146 356.489 673.59 356.549 681.212 359.668L637.948 420.115L579.345 500.436C577.718 501.965 576.417 503.839 575.526 505.935C574.635 508.031 574.174 510.301 574.174 512.598C574.174 514.894 574.635 517.165 575.526 519.26C576.417 521.356 577.718 523.23 579.345 524.76L690.958 681.641H691.195ZM1199.99 357.596V380.616C1184.31 379.533 1168.59 381.925 1153.84 387.635C1139.09 393.346 1125.64 402.25 1114.37 413.772C1103.09 425.294 1094.23 439.178 1088.36 454.529C1082.5 469.879 1079.75 486.354 1080.3 502.891C1080.3 556.655 1080.3 610.42 1080.3 664.184V682.466H1058.13V359.035H1079.99V425.314C1106.81 376.972 1148.2 359.035 1200.13 357.731L1199.99 357.596ZM133.583 510.085L143.347 459.306C170.162 358.901 279.462 317.12 354.66 379.312C398.69 415.722 409.675 467.306 407.525 525.431H159.469C155.461 629.252 226.597 691.943 317.589 659.945C347.574 648.435 370.144 622.192 377.577 589.58C382.386 573.275 390.329 570.474 404.865 575.193C402.441 595.069 395.769 614.108 385.35 630.878C374.931 647.647 361.038 661.711 344.714 672.011C317.745 687.543 286.804 693.697 256.313 689.593C225.823 685.49 197.345 671.339 174.953 649.164C152.801 622.94 139.43 589.791 136.825 554.782C136.825 549.027 135.004 543.656 133.729 538.476C133.607 528.795 133.546 519.331 133.546 510.085H133.583ZM159.778 503.064H384.098C382.696 427.807 337.591 374.42 277.44 373.921C210.475 372.962 162.566 425.179 159.614 502.738L159.778 503.064Z" fill="white"/>
<path d="M728.667 800.962V358.882H751.438V428.421C754.126 425.338 756.61 422.062 758.87 418.619C777.888 377.068 818.001 350.844 861.794 351.362C913.712 349.731 955.901 369.97 980.694 418.619C996.471 448.841 1005.15 482.6 1006.01 517.077C1006.88 551.553 999.894 585.746 985.649 616.802C962.55 671.321 905.496 698.427 844.415 688.471C825.406 686.769 807.105 680.08 791.182 669.016C775.259 657.951 762.221 642.862 753.259 625.127V800.942L728.667 800.962ZM751.438 515.264L756.538 567.174C765.537 626.259 798.71 661.173 850.791 667.733C875.249 671.968 900.345 667.139 921.8 654.07C943.256 641.002 959.743 620.502 968.453 596.064C988.71 545.229 987.216 487.679 964.445 438.032C955.15 416.126 939.336 398.002 919.394 386.398C899.452 374.793 876.465 370.34 853.906 373.71C832.732 375.333 812.563 383.859 796.201 398.105C779.839 412.351 768.096 431.61 762.604 453.206C757.755 473.643 754.026 494.357 751.438 515.245V515.264ZM1470.96 575.346C1467.51 606.473 1453.44 635.219 1431.36 656.239C1409.29 677.259 1380.72 689.122 1350.97 689.622C1255.47 694.686 1210.66 627.909 1203.54 550.849C1198.59 509.002 1205.04 466.534 1222.14 428.402C1234.04 402.244 1253.54 380.755 1277.82 367.048C1302.09 353.342 1329.88 348.13 1357.16 352.168C1383.09 354.489 1407.67 365.339 1427.42 383.182C1447.18 401.026 1461.1 424.959 1467.22 451.595C1472.08 475.859 1475.65 500.387 1477.92 525.067H1227.13C1222.48 594.933 1258.13 651.101 1308.67 664.645C1371.61 680.951 1425.4 652.233 1444.93 589.216C1449.26 573.044 1457.17 570.762 1471.12 575.346H1470.96ZM1226.95 502.699H1451.27C1449.86 428.268 1405.85 374.171 1346.16 373.557C1278.76 372.406 1229.88 424.335 1226.95 502.699ZM1517.32 576.977H1539.31C1540.12 594.035 1545.38 610.528 1554.51 624.642C1563.64 638.755 1576.3 649.942 1591.08 656.972C1609.64 665.768 1629.85 670.042 1650.19 669.478C1670.54 668.913 1690.5 663.524 1708.6 653.71C1718.46 649.034 1726.72 641.281 1732.27 631.5C1737.81 621.719 1740.37 610.381 1739.6 599.019C1740.17 588.061 1737.33 577.206 1731.51 568.102C1725.69 558.997 1717.21 552.139 1707.36 548.567C1683.17 539.09 1657.44 533.872 1632.8 525.547C1607.15 517.857 1582.07 508.201 1557.76 496.656C1518.05 476.245 1515.59 396.75 1560.55 371.581C1583.57 357.902 1609.48 350.51 1635.91 350.081C1662.34 349.652 1688.45 356.2 1711.86 369.126C1740.89 386.007 1756.94 420.096 1752.17 454.683H1733.32C1733.32 453.724 1731.6 452.88 1731.6 451.902C1729.27 388.597 1678.74 368.799 1624.49 374.363C1608.09 376.281 1592.56 381.499 1577.98 389.211C1569.22 393.424 1561.92 400.4 1557.09 409.174C1552.26 417.948 1550.14 428.086 1551.02 438.186C1551.04 448.292 1554.03 458.145 1559.58 466.389C1565.13 474.634 1572.98 480.865 1582.03 484.226C1605.71 493.376 1630.85 499.246 1655.35 506.421L1714.55 522.727C1728.01 527.378 1739.81 536.221 1748.39 548.086C1756.97 559.952 1761.93 574.28 1762.61 589.178C1767.34 622.653 1751.13 655.552 1722.46 670.803C1670.69 701.649 1585.41 693.497 1547.43 654.497C1528 633.913 1517.16 605.963 1517.38 576.958L1517.32 576.977ZM2041.6 454.702H2020.98C2020.98 451.767 2019.88 448.947 2019.57 446.703C2019.24 430.425 2013.61 414.762 2003.62 402.338C1993.62 389.915 1979.88 381.487 1964.69 378.468C1936.03 369.812 1905.46 371.363 1877.72 382.88C1866.75 386.185 1857.1 393.14 1850.19 402.704C1843.29 412.269 1839.51 423.929 1839.43 435.941C1839.04 447.736 1842.52 459.312 1849.3 468.711C1856.08 478.111 1865.73 484.756 1876.63 487.525L1970.88 513.001C1981.07 515.575 1991.11 518.791 2000.94 522.631C2030.99 534.141 2051.4 563.53 2052.31 597.12C2052.76 613.561 2048.48 629.762 2040.02 643.594C2031.57 657.425 2019.34 668.241 2004.94 674.62C1983.07 685.085 1959.36 690.621 1935.33 690.876C1911.31 691.13 1887.49 686.096 1865.42 676.097C1847.27 667.855 1831.95 653.955 1821.53 636.268C1811.11 618.58 1806.08 597.955 1807.13 577.169H1827.28C1834.86 615.631 1859.94 647.668 1894.35 662.822C1928.76 677.977 1968.06 674.256 1999.35 652.924C2008.74 647.782 2016.54 639.914 2021.81 630.252C2027.09 620.589 2029.62 609.538 2029.12 598.405C2029.59 587.439 2026.64 576.612 2020.74 567.566C2014.83 558.52 2006.29 551.749 1996.4 548.279C1972.21 538.802 1946.49 533.757 1921.84 525.259C1896.05 517.688 1870.82 508.141 1846.35 496.695C1807.59 476.61 1804.49 397.766 1848.68 372.617C1871.99 358.363 1898.4 350.706 1925.35 350.39C1952.3 350.074 1978.87 357.11 2002.47 370.814C2015.97 379.298 2026.83 391.732 2033.74 406.602C2040.65 421.473 2043.3 438.138 2041.38 454.568L2041.6 454.702ZM691.195 681.641C683.078 684.874 674.118 684.865 666.006 681.617C657.895 678.369 651.193 672.107 647.165 664.012L567.012 547.281L555.39 530.975L462.375 664.184C458.584 671.931 452.245 677.96 444.541 681.144C436.838 684.329 428.297 684.451 420.514 681.488L540.343 512.195L428.857 359.227C445.398 352.935 463.833 359.764 473.032 375.533L556.1 493.702L639.66 375.993C643.479 368.379 649.823 362.509 657.484 359.499C665.146 356.489 673.59 356.549 681.212 359.668L637.948 420.115L579.345 500.436C577.718 501.965 576.417 503.839 575.526 505.935C574.635 508.031 574.174 510.301 574.174 512.598C574.174 514.894 574.635 517.165 575.526 519.26C576.417 521.356 577.718 523.23 579.345 524.76L690.958 681.641H691.195ZM1199.99 357.596V380.616C1184.31 379.533 1168.59 381.925 1153.84 387.635C1139.09 393.346 1125.64 402.25 1114.37 413.772C1103.09 425.294 1094.23 439.178 1088.36 454.529C1082.5 469.879 1079.75 486.354 1080.3 502.891C1080.3 556.655 1080.3 610.42 1080.3 664.184V682.466H1058.13V359.035H1079.99V425.314C1106.81 376.972 1148.2 359.035 1200.13 357.731L1199.99 357.596ZM133.583 510.085L143.347 459.306C170.162 358.901 279.462 317.12 354.66 379.312C398.69 415.722 409.675 467.306 407.525 525.431H159.469C155.461 629.252 226.597 691.943 317.589 659.945C347.574 648.435 370.144 622.192 377.577 589.58C382.386 573.275 390.329 570.474 404.865 575.193C402.441 595.069 395.769 614.108 385.35 630.878C374.931 647.647 361.038 661.711 344.714 672.011C317.745 687.543 286.804 693.697 256.313 689.593C225.823 685.49 197.345 671.339 174.953 649.164C152.801 622.94 139.43 589.791 136.825 554.782C136.825 549.027 135.004 543.656 133.729 538.476C133.607 528.795 133.546 519.331 133.546 510.085H133.583ZM159.778 503.064H384.098C382.696 427.807 337.591 374.42 277.44 373.921C210.475 372.962 162.566 425.179 159.614 502.738L159.778 503.064Z" stroke="white" stroke-width="12" mask="url(#path-1-outside-1_1317_94)"/>
</svg>
