<svg width="2186" height="1151" viewBox="0 0 2186 1151" fill="none" xmlns="http://www.w3.org/2000/svg">
<path d="M1450.16 385.969H1799.19V453.82H1660.74V810.726H1591.5V453.82H1450.14L1450.16 385.969ZM876.112 385.969V453.82H596.341V562.973H821.335V630.806H596.359V742.894H876.112V810.745H527.118V453.82H527.081V385.988L876.112 385.969ZM1050.41 386.161H959.8L1284.31 810.918H1375.18L1212.9 598.674L1374.92 386.487L1284.31 386.64L1167.54 539.359L1050.41 386.161ZM1143.37 689.564L1098.01 630.153L959.545 811.244H1050.41L1143.37 689.564Z" fill="white"/>
<path fill-rule="evenodd" clip-rule="evenodd" d="M529.54 810.726L204.591 385.815H118.044V810.553H187.267V476.61L442.556 810.726H529.54Z" fill="white"/>
<path d="M1814.74 808.136C1812.34 808.172 1809.95 807.699 1807.72 806.747C1805.49 805.795 1803.46 804.382 1801.76 802.592C1800.01 800.869 1798.64 798.776 1797.72 796.451C1796.8 794.127 1796.35 791.624 1796.42 789.106C1796.37 783.953 1798.15 779.521 1801.76 775.812C1803.46 774.02 1805.49 772.606 1807.73 771.654C1809.96 770.702 1812.35 770.23 1814.76 770.268C1819.64 770.268 1823.9 772.123 1827.51 775.832C1829.26 777.52 1830.65 779.572 1831.61 781.857C1832.56 784.142 1833.05 786.611 1833.05 789.106C1833.04 792.493 1832.15 795.812 1830.47 798.698C1828.82 801.547 1826.51 803.909 1823.76 805.566C1821.04 807.274 1817.91 808.163 1814.74 808.136ZM1932.92 629.213H1963.59V753.675C1963.54 765.095 1961.21 774.911 1956.6 783.121C1952.03 791.265 1945.33 797.842 1937.29 802.055C1929.05 806.455 1919.47 808.661 1908.52 808.673C1898.54 808.661 1889.57 806.794 1881.6 803.072C1873.9 799.602 1867.32 793.859 1862.65 786.536C1857.98 779.233 1855.65 770.128 1855.66 759.219H1886.39C1886.44 764.002 1887.45 768.126 1889.43 771.592C1891.39 774.99 1894.22 777.736 1897.59 779.515C1901.12 781.369 1905.15 782.296 1909.69 782.296C1914.61 782.296 1918.85 781.222 1922.26 779.035C1925.68 776.887 1928.31 773.67 1930.15 769.386C1931.94 765.166 1932.87 759.929 1932.92 753.675V629.213ZM2089.82 677.882C2089.56 674.362 2088.55 670.95 2086.86 667.9C2085.17 664.851 2082.85 662.243 2080.07 660.271C2074.3 656.038 2066.84 653.928 2057.68 653.941C2052.04 653.81 2046.42 654.833 2041.14 656.952C2036.97 658.646 2033.31 661.489 2030.54 665.182C2028.11 668.635 2026.86 672.574 2026.79 676.999C2026.79 680.708 2027.61 683.905 2029.26 686.591C2030.89 689.328 2033.13 691.617 2035.97 693.458C2038.91 695.403 2042.06 696.987 2045.35 698.178C2048.82 699.456 2052.3 700.531 2055.77 701.4L2071.76 705.525C2078.14 707.045 2084.37 709.163 2090.38 711.855C2096.17 714.373 2101.59 717.752 2106.47 721.888C2111.16 725.865 2115 730.839 2117.74 736.487C2120.51 742.178 2121.9 748.866 2121.91 756.552C2121.91 766.899 2119.36 776.017 2114.26 783.908C2109.16 791.735 2101.78 797.867 2092.13 802.305C2082.52 806.704 2070.87 808.91 2057.17 808.923C2043.95 808.923 2032.4 806.774 2022.71 802.496C2012.95 798.263 2005.33 792.048 1999.84 783.85C1994.38 775.665 1991.43 765.703 1990.99 753.963H2021.39C2021.65 759.566 2023.56 764.946 2026.86 769.348C2030.11 773.415 2034.32 776.465 2039.48 778.498C2044.69 780.506 2050.51 781.51 2056.93 781.51C2063.65 781.51 2069.57 780.455 2074.68 778.345C2079.75 776.26 2083.73 773.319 2086.59 769.52C2089.51 765.786 2090.98 761.374 2091 756.284C2091.07 752.088 2089.68 748.01 2087.1 744.812C2084.53 741.794 2080.96 739.262 2076.41 737.216C2071.21 734.955 2065.85 733.121 2060.38 731.729L2040.94 726.55C2026.9 722.803 2015.81 717.111 2007.68 709.477C1999.54 701.842 1995.47 691.681 1995.47 678.994C1995.47 668.571 1998.22 659.44 2003.71 651.6C2009.15 643.761 2016.58 637.673 2026.02 633.338C2035.49 628.977 2046.19 626.803 2058.12 626.815C2070.2 626.803 2080.82 628.977 2089.96 633.338C2099.11 637.673 2106.28 643.697 2111.49 651.409C2116.72 659.082 2119.41 667.906 2119.56 677.882H2089.82Z" fill="white"/>
</svg>
