<svg width="25" height="29" viewBox="0 0 25 29" fill="none" xmlns="http://www.w3.org/2000/svg">
<g clip-path="url(#clip0_1384_70)">
<path d="M12.5 28.1703C12.1118 28.1703 11.7495 28.0668 11.4131 27.8856L7.971 25.8411C7.45342 25.5564 7.71221 25.4529 7.86748 25.4011C8.56621 25.1682 8.69561 25.1165 9.42021 24.7023C9.49795 24.6505 9.60146 24.6764 9.679 24.7282L12.3188 26.3069C12.4224 26.3586 12.5518 26.3586 12.6294 26.3069L22.9556 20.3287C23.0591 20.2769 23.1108 20.1734 23.1108 20.044V8.11323C23.1108 7.98384 23.0591 7.88032 22.9556 7.82856L12.6294 1.87612C12.5259 1.82437 12.3965 1.82437 12.3188 1.87612L1.99268 7.82866C1.88916 7.88042 1.8374 8.00981 1.8374 8.11333V20.044C1.8374 20.1475 1.88916 20.2769 1.99268 20.3287L4.81367 21.959C6.34062 22.7354 7.29805 21.8296 7.29805 20.9239V9.14839C7.29805 8.99311 7.42754 8.83784 7.60869 8.83784H8.92861C9.08389 8.83784 9.23916 8.96724 9.23916 9.14839V20.9238C9.23916 22.9683 8.12627 24.1587 6.18525 24.1587C5.59004 24.1587 5.12422 24.1587 3.80439 23.5118L1.08691 21.959C0.414063 21.5708 0 20.8461 0 20.0698V8.13921C0 7.36284 0.414063 6.63823 1.08691 6.24995L11.4131 0.271729C12.0601 -0.0905762 12.9399 -0.0905762 13.5869 0.271729L23.9131 6.24995C24.5859 6.63813 25 7.36274 25 8.13921V20.0699C25 20.8462 24.5859 21.5708 23.9131 21.959L13.5869 27.9375C13.2505 28.0927 12.8623 28.1704 12.5 28.1704M15.6832 19.9664C11.1542 19.9664 10.2226 17.896 10.2226 16.1362C10.2226 15.9809 10.352 15.8256 10.5331 15.8256H11.8788C12.0341 15.8256 12.1636 15.9292 12.1636 16.0844C12.3706 17.456 12.9658 18.129 15.7091 18.129C17.883 18.129 18.8147 17.6373 18.8147 16.4727C18.8147 15.7998 18.556 15.3081 15.1656 14.9715C12.3447 14.6869 10.5849 14.0658 10.5849 11.8143C10.5849 9.71792 12.3446 8.47573 15.295 8.47573C18.6076 8.47573 20.2381 9.6144 20.4451 12.0989C20.4451 12.1765 20.4192 12.2542 20.3675 12.3318C20.3157 12.3835 20.2381 12.4353 20.1604 12.4353H18.8147C18.6853 12.4353 18.556 12.3318 18.53 12.2024C18.2194 10.7791 17.4172 10.3132 15.295 10.3132C12.9142 10.3132 12.6294 11.1414 12.6294 11.7625C12.6294 12.513 12.9658 12.7458 16.1749 13.1599C19.3582 13.574 20.8592 14.1693 20.8592 16.395C20.8333 18.6724 18.97 19.9664 15.6832 19.9664Z" fill="#539E43"/>
</g>
<defs>
<clipPath id="clip0_1384_70">
<rect width="25" height="28.2227" fill="white"/>
</clipPath>
</defs>
</svg>
