<svg width="2100" height="1137" viewBox="0 0 2100 1137" fill="none" xmlns="http://www.w3.org/2000/svg">
<path fill-rule="evenodd" clip-rule="evenodd" d="M468.518 583.303C468.518 578.211 465.955 573.536 461.759 571.004L349.998 503.629C348.113 502.461 345.988 501.863 343.85 501.765C343.651 501.765 342.854 501.765 342.695 501.765C340.557 501.863 338.432 502.461 336.52 503.629L224.759 571.004C220.59 573.536 218 578.211 218 583.303L218.239 764.741C218.239 767.259 219.501 769.61 221.612 770.848C223.697 772.156 226.26 772.156 228.318 770.848L294.742 731.005C298.939 728.389 301.502 723.771 301.502 718.735V633.97C301.502 628.906 304.051 624.231 308.234 621.727L336.52 604.657C338.631 603.377 340.928 602.751 343.292 602.751C345.589 602.751 347.953 603.377 349.998 604.657L378.27 621.727C382.453 624.231 385.03 628.906 385.03 633.97V718.735C385.03 723.771 387.619 728.417 391.789 731.005L458.2 770.848C460.271 772.156 462.874 772.156 464.946 770.848C467.004 769.61 468.292 767.259 468.292 764.741L468.518 583.303Z" fill="white"/>
<mask id="mask0_1317_159" style="mask-type:luminance" maskUnits="userSpaceOnUse" x="887" y="333" width="253" height="471">
<path d="M887.711 333H1139.28V804H887.711V333Z" fill="white"/>
</mask>
<g mask="url(#mask0_1317_159)">
<path fill-rule="evenodd" clip-rule="evenodd" d="M1054.92 677.777C1054.92 679.029 1054.27 680.198 1053.24 680.838L1014.85 704.015C1013.81 704.641 1012.52 704.641 1011.47 704.015L973.082 680.838C972.046 680.198 971.395 679.029 971.395 677.777V631.339C971.395 630.073 972.046 628.905 973.082 628.265L1011.47 605.046C1012.52 604.406 1013.81 604.406 1014.85 605.046L1053.24 628.265C1054.27 628.905 1054.92 630.073 1054.92 631.339V677.777ZM1065.29 333.876C1063.21 332.652 1060.65 332.68 1058.59 333.96C1056.53 335.226 1055.26 337.549 1055.26 340.053V519.739C1055.26 521.505 1054.35 523.147 1052.9 524.023C1051.43 524.914 1049.64 524.914 1048.16 524.023L1020.18 507.134C1016 504.602 1010.86 504.616 1006.69 507.134L894.879 574.732C890.709 577.264 888.133 581.925 888.133 586.975V722.198C888.133 727.262 890.709 731.922 894.879 734.454L1006.68 802.108C1010.86 804.626 1016 804.626 1020.18 802.108L1132.01 734.454C1136.18 731.922 1138.76 727.262 1138.76 722.198V385.127C1138.76 379.994 1136.11 375.264 1131.84 372.774L1065.29 333.876Z" fill="white"/>
</g>
<path fill-rule="evenodd" clip-rule="evenodd" d="M1465.3 630.116C1469.47 627.598 1472.02 622.937 1472.02 617.887V585.125C1472.02 580.089 1469.47 575.428 1465.3 572.883L1354.22 505.327C1350.04 502.781 1344.87 502.767 1340.69 505.299L1228.92 572.896C1224.75 575.428 1222.17 580.089 1222.17 585.139V720.334C1222.17 725.412 1224.77 730.114 1229 732.619L1340.07 798.923C1344.16 801.371 1349.18 801.399 1353.31 799.006L1420.49 759.886C1422.61 758.648 1423.94 756.297 1423.95 753.751C1423.97 751.191 1422.68 748.84 1420.57 747.574L1308.09 679.934C1305.99 678.682 1304.7 676.331 1304.7 673.799V631.438C1304.7 628.906 1305.98 626.568 1308.08 625.316L1343.08 604.17C1345.16 602.904 1347.74 602.904 1349.83 604.17L1384.84 625.316C1386.94 626.568 1388.22 628.906 1388.22 631.438V664.77C1388.22 667.302 1389.52 669.64 1391.6 670.906C1393.7 672.172 1396.28 672.158 1398.36 670.892L1465.3 630.116Z" fill="white"/>
<path fill-rule="evenodd" clip-rule="evenodd" d="M671.815 504.589C675.998 502.057 681.137 502.057 685.32 504.589L797.107 572.172C801.29 574.704 803.866 579.365 803.866 584.429V719.708C803.866 724.744 801.29 729.418 797.12 731.95L685.32 799.59C681.137 802.122 675.998 802.122 671.815 799.59L560.041 731.95C555.871 729.418 553.295 724.744 553.295 719.708V584.415C553.295 579.365 555.871 574.704 560.054 572.172L671.815 504.589Z" fill="white"/>
<path d="M1682.37 801.523C1678.52 801.523 1674.68 800.466 1671.32 798.421L1636.12 776.607C1630.86 773.519 1633.43 772.434 1635.16 771.794C1642.17 769.248 1643.59 768.664 1651.08 764.226C1651.85 763.767 1652.89 763.934 1653.7 764.434L1680.74 781.24C1681.72 781.81 1683.1 781.81 1684 781.24L1789.41 717.51C1790.4 716.912 1791.02 715.729 1791.02 714.519V587.072C1791.02 585.82 1790.4 584.651 1789.39 584.025L1684.02 520.337C1683.05 519.739 1681.74 519.739 1680.76 520.337L1575.42 584.039C1574.39 584.651 1573.76 585.862 1573.76 587.072V714.519C1573.76 715.729 1574.39 716.884 1575.42 717.468L1604.29 734.941C1619.96 743.149 1629.56 733.494 1629.56 723.77V597.937C1629.56 596.17 1630.91 594.765 1632.61 594.765H1645.98C1647.66 594.765 1649.04 596.17 1649.04 597.937V723.77C1649.04 745.681 1637.64 758.244 1617.82 758.244C1611.74 758.244 1606.93 758.244 1593.54 751.329L1565.89 734.663C1559.07 730.517 1554.85 722.796 1554.85 714.519V587.072C1554.85 578.781 1559.07 571.06 1565.89 566.942L1671.32 503.128C1677.99 499.163 1686.84 499.163 1693.47 503.128L1798.88 566.942C1805.71 571.073 1809.94 578.781 1809.94 587.072V714.519C1809.94 722.796 1805.71 730.503 1798.88 734.663L1693.47 798.421C1690.1 800.466 1686.27 801.523 1682.37 801.523Z" fill="white"/>
<path d="M1714.93 713.712C1668.8 713.712 1659.14 691.537 1659.14 672.922C1659.14 671.156 1660.5 669.751 1662.19 669.751H1675.81C1677.34 669.751 1678.61 670.891 1678.84 672.449C1680.9 686.987 1687.03 694.319 1714.93 694.319C1737.14 694.319 1746.59 689.06 1746.59 676.72C1746.59 669.597 1743.92 664.311 1709.39 660.777C1680.56 657.786 1662.72 651.109 1662.72 626.944C1662.72 604.657 1680.64 591.371 1710.71 591.371C1744.48 591.371 1761.18 603.641 1763.31 629.99C1763.39 630.895 1763.07 631.771 1762.5 632.453C1761.91 633.079 1761.12 633.468 1760.27 633.468H1746.59C1745.17 633.468 1743.92 632.411 1743.63 630.978C1740.35 615.675 1732.37 610.792 1710.71 610.792C1686.46 610.792 1683.65 619.64 1683.65 626.262C1683.65 634.303 1686.97 636.64 1719.7 641.176C1752.1 645.669 1767.49 652.027 1767.49 675.872C1767.49 699.939 1748.33 713.712 1714.93 713.712Z" fill="white"/>
<path fill-rule="evenodd" clip-rule="evenodd" d="M1345.8 623.785C1346.6 623.298 1347.59 623.298 1348.39 623.785L1369.85 636.751C1370.64 637.238 1371.14 638.128 1371.14 639.102V665.062C1371.14 666.036 1370.64 666.926 1369.85 667.413L1348.39 680.379C1347.59 680.866 1346.6 680.866 1345.8 680.379L1324.37 667.413C1323.57 666.926 1323.06 666.036 1323.06 665.062V639.102C1323.06 638.128 1323.57 637.238 1324.37 636.751L1345.8 623.785Z" fill="white"/>
<mask id="mask1_1317_159" style="mask-type:luminance" maskUnits="userSpaceOnUse" x="1839" y="514" width="44" height="47">
<path d="M1839.58 514.633H1882.89V560.932H1839.58V514.633Z" fill="white"/>
</mask>
<g mask="url(#mask1_1317_159)">
<path d="M1859.26 536.183H1862.81C1865.7 536.183 1866.25 534.054 1866.25 532.816C1866.25 529.547 1864.1 529.547 1862.91 529.547H1859.26V536.183ZM1854.96 525.707H1862.81C1865.49 525.707 1870.76 525.707 1870.76 532.023C1870.76 536.419 1868.08 537.309 1866.46 537.88C1869.58 538.102 1869.79 540.245 1870.22 543.278C1870.44 545.197 1870.76 548.467 1871.4 549.594H1866.57C1866.46 548.467 1865.7 542.373 1865.7 542.039C1865.4 540.69 1864.96 540.022 1863.34 540.022H1859.37V549.594H1854.96V525.707ZM1845.56 537.588C1845.56 547.507 1853.19 555.506 1862.54 555.506C1872 555.506 1879.63 547.34 1879.63 537.588C1879.63 527.682 1871.89 519.808 1862.54 519.808C1853.29 519.808 1845.56 527.571 1845.56 537.588ZM1882.9 537.657C1882.9 549.357 1873.76 558.942 1862.59 558.942C1851.52 558.942 1842.28 549.482 1842.28 537.657C1842.28 525.61 1851.73 516.358 1862.59 516.358C1873.55 516.358 1882.9 525.61 1882.9 537.657Z" fill="white"/>
</g>
</svg>
