<svg width="25" height="25" viewBox="0 0 25 25" fill="none" xmlns="http://www.w3.org/2000/svg">
<path fill-rule="evenodd" clip-rule="evenodd" d="M19.6944 18.914L9.95147 21.8187C9.88359 21.8393 9.81153 21.8419 9.74233 21.8263C9.67313 21.8107 9.60916 21.7775 9.55666 21.7298C9.50416 21.6821 9.46493 21.6216 9.44279 21.5542C9.42066 21.4868 9.41638 21.4148 9.43037 21.3453L12.9116 4.53979C12.9263 4.47115 12.9622 4.40884 13.0142 4.36162C13.0661 4.3144 13.1316 4.28465 13.2013 4.27655C13.2711 4.26845 13.3416 4.2824 13.403 4.31644C13.4644 4.35049 13.5136 4.40291 13.5437 4.46636L19.9882 18.264C20.0171 18.3254 20.0323 18.3923 20.0329 18.4601C20.0334 18.5279 20.0192 18.595 19.9913 18.6568C19.9633 18.7186 19.9223 18.7736 19.8711 18.818C19.8198 18.8624 19.7596 18.8952 19.6944 18.914ZM21.3655 18.2281L13.9054 2.25229C13.8137 2.05519 13.6701 1.88681 13.4899 1.76526C13.3097 1.64371 13.0998 1.57359 12.8827 1.56245C12.6656 1.54725 12.4485 1.59241 12.2555 1.69293C12.0625 1.79344 11.901 1.9454 11.789 2.13198L3.69912 15.35C3.57554 15.55 3.51125 15.7809 3.51374 16.0161C3.51623 16.2512 3.58539 16.4807 3.71319 16.6781L7.66944 22.857C7.81869 23.0877 8.03857 23.264 8.29625 23.3594C8.55393 23.4549 8.83557 23.4645 9.09912 23.3867L20.5835 19.9625C20.757 19.9119 20.9174 19.8244 21.0538 19.7059C21.1901 19.5874 21.2992 19.4408 21.3735 19.2761C21.4477 19.1114 21.4854 18.9326 21.4839 18.7519C21.4824 18.5713 21.4417 18.3931 21.3647 18.2296L21.3655 18.2281Z" fill="#D2D2D2"/>
</svg>
