<svg width="2200" height="1137" viewBox="0 0 2200 1137" fill="none" xmlns="http://www.w3.org/2000/svg">
<path d="M93.7367 683.032C87.4211 671.985 87.4211 659.36 93.7367 649.891L321.099 277.45C333.73 256.934 363.73 258.512 374.782 280.606L581.619 733.533C589.513 750.893 581.619 769.83 562.672 774.565L240.575 872.41C226.365 877.144 213.734 870.832 205.839 859.785L93.7367 683.032ZM267.416 787.19C265.838 795.081 273.732 802.971 281.627 799.815L504.252 733.533C510.568 731.955 515.305 724.064 512.147 717.752L368.466 384.764C363.73 375.295 349.52 376.873 346.362 387.92L267.416 787.19ZM1178.45 496.812H1243.18V730.377H1178.45V496.812ZM1176.87 436.842C1176.87 415.8 1187.92 405.279 1210.02 405.279C1233.18 405.279 1244.76 415.8 1244.76 436.842C1244.76 446.311 1242.13 453.676 1236.86 458.936C1230.55 465.249 1221.6 468.405 1210.02 468.405C1187.92 468.405 1176.87 457.884 1176.87 436.842ZM2065.79 730.377L2053.16 698.814H2051.58C2041.05 712.491 2030.53 721.96 2020 727.22C2008.42 732.481 1993.16 735.111 1974.21 735.111C1952.11 735.111 1934.74 728.799 1922.11 716.174C1909.48 702.496 1903.16 684.085 1903.16 660.939C1903.16 635.688 1911.58 617.277 1928.43 605.704C1946.32 594.131 1972.64 587.818 2007.37 586.766L2046.84 585.188V574.141C2046.84 550.995 2034.74 539.421 2010.53 539.421C1992.63 539.421 1971.06 545.208 1945.79 556.781L1925.27 512.593C1951.58 498.916 1981.06 492.077 2013.69 492.077C2045.26 492.077 2069.47 498.916 2086.32 512.593C2102.11 526.27 2110 546.786 2110 574.141V730.377H2065.79ZM2046.84 621.485L2023.16 623.063C2004.21 623.063 1990.53 626.219 1982.11 632.532C1972.64 638.844 1967.9 648.313 1967.9 660.939C1967.9 678.824 1978.42 687.767 1999.48 687.767C2014.21 687.767 2025.79 683.558 2034.21 675.142C2042.63 666.725 2046.84 655.678 2046.84 642.001V621.485ZM1718.43 728.799H1653.7V593.078C1653.7 576.245 1651.06 563.62 1645.8 555.203C1640.54 546.786 1631.59 542.578 1618.96 542.578C1603.17 542.578 1591.59 548.364 1584.22 559.937C1576.86 571.51 1573.17 591.5 1573.17 619.907V728.799H1510.02V495.234H1557.38L1566.86 525.218H1570.01C1576.33 514.697 1585.28 506.281 1596.86 499.968C1608.43 493.655 1622.12 490.499 1637.91 490.499C1672.64 490.499 1696.33 502.072 1708.96 525.218H1713.69C1720.01 514.697 1729.48 506.281 1742.11 499.968C1753.69 493.655 1767.38 490.499 1783.17 490.499C1809.48 490.499 1829.48 497.338 1843.16 511.015C1855.8 524.692 1862.11 546.786 1862.11 577.297V728.799H1798.96V593.078C1798.96 576.245 1796.32 563.62 1791.06 555.203C1784.75 546.786 1775.8 542.578 1764.22 542.578C1748.43 542.578 1736.85 547.838 1729.48 558.359C1722.12 569.932 1718.43 587.818 1718.43 612.016V728.799ZM1366.34 733.533C1349.49 733.533 1335.28 731.955 1323.7 728.799C1312.13 726.694 1301.07 723.538 1290.55 719.33V667.251C1302.13 672.511 1315.28 676.72 1330.02 679.876C1344.76 684.085 1357.91 686.189 1369.49 686.189C1392.65 686.189 1404.23 679.35 1404.23 665.673C1404.23 661.465 1402.65 657.782 1399.49 654.626C1396.33 651.47 1391.07 647.787 1383.7 643.579C1375.28 639.371 1365.28 634.636 1353.7 629.376C1335.81 622.011 1322.65 615.172 1314.23 608.86C1305.81 602.547 1299.49 595.183 1295.28 586.766C1291.07 578.349 1288.97 567.828 1288.97 555.203C1288.97 535.213 1297.39 519.432 1314.23 507.859C1330.02 496.286 1352.65 490.499 1382.12 490.499C1409.49 490.499 1436.86 496.812 1464.23 509.437L1443.7 555.203C1432.12 549.942 1421.6 545.734 1412.12 542.578C1401.6 539.422 1391.07 537.843 1380.55 537.843C1361.6 537.843 1352.12 543.104 1352.12 553.625C1352.12 558.885 1355.28 563.62 1361.6 567.828C1367.91 572.036 1381.07 578.349 1401.07 586.766C1418.97 594.13 1432.65 600.969 1442.12 607.282C1450.54 613.594 1456.33 620.959 1459.49 629.376C1463.7 637.792 1465.81 647.787 1465.81 659.36C1465.81 683.559 1457.39 701.97 1440.54 714.595C1424.75 727.22 1400.02 733.533 1366.34 733.533ZM1140.55 552.047C1135.29 550.995 1128.97 550.469 1121.6 550.469C1101.61 550.469 1085.82 555.729 1074.24 566.25C1062.66 576.771 1056.87 591.5 1056.87 610.438V728.799H993.713V495.234H1042.66L1052.13 534.687H1055.29C1061.61 521.01 1071.08 510.489 1083.71 503.124C1096.34 494.707 1109.5 490.499 1123.18 490.499C1132.66 490.499 1140.03 491.025 1145.29 492.077L1140.55 552.047ZM952.662 518.906C952.662 551.521 942.662 576.771 922.663 594.656C901.61 611.49 872.138 619.907 834.244 619.907H807.402V728.799H742.667V422.639H840.559C877.401 422.639 905.295 431.056 924.241 447.889C943.188 463.671 952.662 487.343 952.662 518.906ZM807.402 567.828H827.928C847.928 567.828 863.19 563.62 873.716 555.203C883.19 547.838 887.927 536.265 887.927 520.484C887.927 505.755 883.716 494.707 875.295 487.343C866.875 479.978 853.717 476.296 835.823 476.296H807.402V567.828Z" fill="white"/>
</svg>
