<svg width="2300" height="1137" viewBox="0 0 2300 1137" fill="none" xmlns="http://www.w3.org/2000/svg">
<mask id="path-1-outside-1_1317_181" maskUnits="userSpaceOnUse" x="94" y="252" width="2113" height="634" fill="black">
<rect fill="white" x="94" y="252" width="2113" height="634"/>
<path d="M642.376 257H639.904C626.447 257.25 612.166 260.17 597.61 265.062C568.361 274.822 536.64 292.932 504.369 318.467C498.053 323.472 491.599 328.838 485.145 334.455C480.888 330.71 476.631 327.216 472.374 323.721C438.181 296.164 404.538 276.782 373.778 266.335C358.398 261.119 343.43 257.986 329.423 257.686C315.417 257.374 302.371 259.871 290.974 265.911C268.728 277.556 256.644 300.495 251.425 328.339C246.07 356.346 247.443 390.293 255.682 428.483C257.33 436.097 259.253 443.835 261.45 451.822C251.563 454.318 241.95 457.064 232.887 459.935C192.886 472.54 160.533 488.515 137.299 506.487C114.064 524.584 99 545.551 99 568.391C99 591.979 114.833 613.82 139.317 632.791C163.801 651.886 197.967 668.86 240.165 681.84C246.894 683.961 253.76 685.958 260.901 687.83C258.566 696.317 256.506 704.679 254.858 712.792C247.031 750.608 246.07 784.056 251.563 811.388C257.193 838.721 269.689 861.061 291.523 872.418C313.906 884.275 342.606 882.653 373.091 872.918C403.439 863.183 436.533 844.711 470.039 818.003C475.395 813.76 480.75 809.267 486.106 804.524C493.109 810.639 500.112 816.505 507.116 821.872C539.111 846.958 570.42 864.431 599.258 873.666C628.095 882.902 655.696 884.275 677.393 872.793C699.913 860.936 712.684 837.598 718.589 808.767C724.494 779.937 723.395 744.617 714.744 704.929C713.371 698.813 711.86 692.448 710.212 686.208C715.019 684.835 719.825 683.462 724.494 682.089C767.887 669.109 803.178 652.385 828.583 633.415C853.987 614.444 870.465 592.479 870.465 568.391C870.465 545.177 854.673 524.21 830.78 505.988C806.886 487.891 773.792 471.916 733.282 459.311C725.318 456.814 717.078 454.443 708.565 452.197C709.938 447.08 711.311 441.963 712.41 436.845C721.61 396.159 723.258 359.965 717.902 330.473C712.41 300.994 699.776 277.031 676.844 265C666.545 259.559 654.735 257.087 642.376 257ZM640.042 287.141C648.693 286.941 655.559 288.389 660.365 290.947C670.802 296.376 680.826 310.979 685.357 335.341C689.889 359.84 688.653 392.789 680.002 430.73C678.903 435.348 677.805 439.966 676.569 444.708C644.711 437.969 609.969 432.976 573.441 429.856C552.431 402.649 530.46 377.687 508.214 355.846C514.256 350.692 520.024 345.7 525.929 341.082C556.002 317.356 584.976 301.194 609.007 293.181C620.954 289.175 631.391 287.34 640.042 287.141ZM325.853 287.827H329.149C338.349 288.064 349.472 290.074 362.243 294.392C387.784 303.053 418.682 320.476 450.403 346.186C454.247 349.307 458.092 352.551 461.937 355.971C439.692 377.687 417.583 402.524 396.298 429.732C359.908 432.852 325.166 437.844 293.445 444.334C291.386 436.97 289.601 429.732 288.09 422.742C280.4 387.297 279.576 356.346 283.833 333.456C288.227 310.579 297.702 296.975 307.452 291.833C311.984 289.45 318.163 287.989 325.853 287.815V287.827ZM485.145 377.438C500.387 392.29 515.492 409.014 530.46 427.111C515.492 426.487 500.112 426.112 484.733 426.112C469.49 426.112 454.385 426.487 439.417 427.111C454.522 409.014 469.902 392.415 485.145 377.438ZM1108.58 407.142V693.197H1147.85V579.499H1210.61L1290.8 693.197H1337.08L1252.08 576.503C1295.06 573.009 1333.78 544.803 1333.78 493.258C1333.78 440.59 1292.72 407.142 1235.05 407.142H1108.58ZM2106.62 429.357V486.019H2069.55V514.35H2106.62V649.889C2106.62 680.716 2124.47 698.314 2157.43 698.314C2178.03 698.314 2191.76 692.698 2200 684.96L2189.01 660.997C2184.89 665.74 2175.28 669.609 2165.67 669.609C2150.56 669.609 2142.33 658.376 2142.33 643.025V514.35H2189.01V486.019H2142.33V429.357H2106.62ZM1147.85 438.842H1230.38C1267.6 438.842 1293.14 461.183 1293.14 493.258C1293.14 525.458 1267.6 548.172 1230.38 548.172H1147.85V438.842ZM484.733 456.066C508.764 456.066 532.245 456.939 555.041 458.437C567.949 475.66 580.445 493.757 592.392 512.478C604.339 531.199 615.461 550.045 625.486 568.641C615.461 587.486 604.476 606.582 592.392 625.427C580.445 644.273 568.086 662.37 555.315 679.718C532.383 681.216 508.764 681.964 484.733 681.964C460.976 681.964 437.632 681.216 414.837 679.968C401.928 662.62 389.295 644.523 377.211 625.677C365.127 606.831 354.141 587.861 344.254 569.14C354.141 550.294 365.127 531.448 377.074 512.603C389.02 493.757 401.654 475.66 414.562 458.437C437.357 456.939 460.839 456.066 484.733 456.066ZM372.13 462.306C364.028 473.788 356.201 485.52 348.511 497.626C340.821 509.732 333.68 521.838 326.814 533.82C317.065 513.102 308.963 492.759 302.234 473.289C324.205 468.796 347.55 465.176 372.13 462.306ZM597.335 462.431C622.053 465.176 645.672 469.045 667.643 473.538C661.052 493.008 652.675 513.227 642.926 533.945C635.922 521.838 628.507 509.607 620.817 497.501C613.127 485.52 605.3 473.788 597.335 462.431ZM270.238 480.652C279.851 508.983 292.484 538.812 307.864 569.14C292.21 599.967 279.439 630.17 269.689 658.875C263.235 657.253 256.918 655.381 250.739 653.509C211.74 641.403 180.953 625.802 160.753 610.076C140.539 594.351 131.957 579.124 131.957 568.391C131.957 558.032 139.798 544.054 158.721 529.327C177.63 514.6 206.659 499.872 243.736 488.141C252.112 485.52 261.038 483.024 270.238 480.652ZM1473.58 480.902C1408.35 480.902 1361.11 529.327 1361.11 589.358C1361.11 654.133 1409.72 698.314 1476.32 698.314C1513.4 698.314 1544.98 687.206 1566.95 666.613L1550.48 645.521C1532.62 662.245 1506.53 671.73 1480.44 671.73C1431.42 671.73 1401.21 639.156 1398.46 600.092H1582.06V591.979C1582.06 529.701 1542.24 480.902 1473.58 480.902ZM1718.01 480.902C1680.93 480.902 1652.09 492.01 1627.37 515.224L1643.85 537.439C1664.45 517.72 1686.42 508.734 1713.89 508.734C1746.84 508.734 1771.56 524.584 1771.56 552.541V589.858C1752.34 570.513 1726.24 561.527 1696.03 561.527C1657.58 561.527 1616.39 583.368 1616.39 629.671C1616.39 674.726 1657.58 698.314 1696.03 698.314C1726.24 698.314 1752.34 688.454 1771.56 669.609V693.197H1805.89V550.793C1805.89 500.621 1766.07 480.902 1718.01 480.902ZM1970.68 480.902C1903.39 480.902 1856.7 528.079 1856.7 589.358C1856.7 651.137 1903.39 698.314 1970.68 698.314C2011.87 698.314 2036.59 682.838 2054.44 662.245L2031.1 642.526C2015.99 660.997 1996.77 669.609 1973.42 669.609C1923.99 669.609 1893.78 635.287 1893.78 589.358C1893.78 543.43 1923.99 509.607 1973.42 509.607C1996.77 509.607 2015.99 517.72 2031.1 536.565L2054.44 516.846C2036.59 496.253 2011.87 480.902 1970.68 480.902ZM699.776 481.027C707.603 483.148 715.293 485.395 722.571 487.642C760.197 499.373 790.133 514.1 809.77 529.077C829.269 543.929 837.508 558.157 837.508 568.391C837.508 579.249 828.72 594.475 807.71 610.201C786.562 625.927 754.567 641.527 714.195 653.758C709.938 655.006 705.681 656.254 701.287 657.378C691.4 628.922 678.08 598.968 662.15 568.641C677.53 538.687 690.164 509.233 699.776 481.027ZM484.733 505.863C466.494 505.886 449.01 512.481 436.114 524.203C423.217 535.924 415.961 551.815 415.935 568.391C415.924 584.989 423.165 600.912 436.065 612.66C448.966 624.408 466.47 631.02 484.733 631.044C493.787 631.049 502.753 629.431 511.119 626.284C519.485 623.138 527.087 618.523 533.489 612.704C539.891 606.885 544.969 599.977 548.431 592.373C551.893 584.769 553.673 576.62 553.667 568.391C553.642 551.793 546.367 535.883 533.44 524.159C520.514 512.434 502.995 505.853 484.733 505.863ZM1472.2 507.486C1524.38 507.486 1546.36 545.676 1547.73 576.503H1398.46C1400.25 544.803 1424.42 507.486 1472.2 507.486ZM1708.39 584.616C1733.11 584.616 1757.83 593.227 1771.56 610.326V649.39C1757.83 666.613 1733.11 675.1 1708.39 675.1C1675.44 675.1 1652.09 656.254 1652.09 630.17C1652.09 603.461 1675.44 584.616 1708.39 584.616ZM643.337 603.337C653.499 624.554 662.288 645.271 669.154 664.991C646.771 669.609 622.602 673.353 597.335 676.099C605.3 664.492 613.264 652.51 620.954 640.404C628.782 628.048 636.197 615.692 643.337 603.337ZM326.814 604.335C333.68 616.441 340.958 628.547 348.648 640.654C356.475 652.885 364.577 664.866 372.817 676.598C347.824 674.102 323.931 670.607 301.822 666.239C308.551 646.395 316.927 625.677 326.814 604.335ZM678.217 693.821C679.865 699.562 681.238 705.303 682.474 710.795C690.438 747.488 690.988 779.563 686.181 803.276C681.375 827.114 671.076 841.467 660.914 846.833C651.027 852.075 633.725 852.949 610.243 845.46C586.762 837.847 558.199 822.371 528.538 799.157C522.084 794.165 515.63 788.798 509.176 783.057C531.284 761.091 552.981 735.881 573.853 708.423C610.93 705.428 646.084 700.561 678.217 693.821ZM292.896 695.194C325.029 701.684 360.046 706.177 396.848 708.798C418.27 736.255 440.653 761.341 463.036 783.182C458.092 787.55 453.286 791.669 448.343 795.538C417.446 820.125 387.098 836.599 362.106 844.587C336.976 852.699 318.163 851.825 308.001 846.459C298.114 841.342 288.639 828.112 283.97 805.897C279.439 783.681 279.988 753.478 287.266 718.408C288.777 710.919 290.699 703.181 292.896 695.194ZM531.284 710.919C516.316 729.391 501.211 746.364 486.106 761.591C470.589 746.364 454.934 729.391 439.692 711.169C454.522 711.668 469.49 711.918 484.733 711.918C500.387 711.918 515.904 711.543 531.284 710.919Z"/>
</mask>
<path d="M642.376 257H639.904C626.447 257.25 612.166 260.17 597.61 265.062C568.361 274.822 536.64 292.932 504.369 318.467C498.053 323.472 491.599 328.838 485.145 334.455C480.888 330.71 476.631 327.216 472.374 323.721C438.181 296.164 404.538 276.782 373.778 266.335C358.398 261.119 343.43 257.986 329.423 257.686C315.417 257.374 302.371 259.871 290.974 265.911C268.728 277.556 256.644 300.495 251.425 328.339C246.07 356.346 247.443 390.293 255.682 428.483C257.33 436.097 259.253 443.835 261.45 451.822C251.563 454.318 241.95 457.064 232.887 459.935C192.886 472.54 160.533 488.515 137.299 506.487C114.064 524.584 99 545.551 99 568.391C99 591.979 114.833 613.82 139.317 632.791C163.801 651.886 197.967 668.86 240.165 681.84C246.894 683.961 253.76 685.958 260.901 687.83C258.566 696.317 256.506 704.679 254.858 712.792C247.031 750.608 246.07 784.056 251.563 811.388C257.193 838.721 269.689 861.061 291.523 872.418C313.906 884.275 342.606 882.653 373.091 872.918C403.439 863.183 436.533 844.711 470.039 818.003C475.395 813.76 480.75 809.267 486.106 804.524C493.109 810.639 500.112 816.505 507.116 821.872C539.111 846.958 570.42 864.431 599.258 873.666C628.095 882.902 655.696 884.275 677.393 872.793C699.913 860.936 712.684 837.598 718.589 808.767C724.494 779.937 723.395 744.617 714.744 704.929C713.371 698.813 711.86 692.448 710.212 686.208C715.019 684.835 719.825 683.462 724.494 682.089C767.887 669.109 803.178 652.385 828.583 633.415C853.987 614.444 870.465 592.479 870.465 568.391C870.465 545.177 854.673 524.21 830.78 505.988C806.886 487.891 773.792 471.916 733.282 459.311C725.318 456.814 717.078 454.443 708.565 452.197C709.938 447.08 711.311 441.963 712.41 436.845C721.61 396.159 723.258 359.965 717.902 330.473C712.41 300.994 699.776 277.031 676.844 265C666.545 259.559 654.735 257.087 642.376 257ZM640.042 287.141C648.693 286.941 655.559 288.389 660.365 290.947C670.802 296.376 680.826 310.979 685.357 335.341C689.889 359.84 688.653 392.789 680.002 430.73C678.903 435.348 677.805 439.966 676.569 444.708C644.711 437.969 609.969 432.976 573.441 429.856C552.431 402.649 530.46 377.687 508.214 355.846C514.256 350.692 520.024 345.7 525.929 341.082C556.002 317.356 584.976 301.194 609.007 293.181C620.954 289.175 631.391 287.34 640.042 287.141ZM325.853 287.827H329.149C338.349 288.064 349.472 290.074 362.243 294.392C387.784 303.053 418.682 320.476 450.403 346.186C454.247 349.307 458.092 352.551 461.937 355.971C439.692 377.687 417.583 402.524 396.298 429.732C359.908 432.852 325.166 437.844 293.445 444.334C291.386 436.97 289.601 429.732 288.09 422.742C280.4 387.297 279.576 356.346 283.833 333.456C288.227 310.579 297.702 296.975 307.452 291.833C311.984 289.45 318.163 287.989 325.853 287.815V287.827ZM485.145 377.438C500.387 392.29 515.492 409.014 530.46 427.111C515.492 426.487 500.112 426.112 484.733 426.112C469.49 426.112 454.385 426.487 439.417 427.111C454.522 409.014 469.902 392.415 485.145 377.438ZM1108.58 407.142V693.197H1147.85V579.499H1210.61L1290.8 693.197H1337.08L1252.08 576.503C1295.06 573.009 1333.78 544.803 1333.78 493.258C1333.78 440.59 1292.72 407.142 1235.05 407.142H1108.58ZM2106.62 429.357V486.019H2069.55V514.35H2106.62V649.889C2106.62 680.716 2124.47 698.314 2157.43 698.314C2178.03 698.314 2191.76 692.698 2200 684.96L2189.01 660.997C2184.89 665.74 2175.28 669.609 2165.67 669.609C2150.56 669.609 2142.33 658.376 2142.33 643.025V514.35H2189.01V486.019H2142.33V429.357H2106.62ZM1147.85 438.842H1230.38C1267.6 438.842 1293.14 461.183 1293.14 493.258C1293.14 525.458 1267.6 548.172 1230.38 548.172H1147.85V438.842ZM484.733 456.066C508.764 456.066 532.245 456.939 555.041 458.437C567.949 475.66 580.445 493.757 592.392 512.478C604.339 531.199 615.461 550.045 625.486 568.641C615.461 587.486 604.476 606.582 592.392 625.427C580.445 644.273 568.086 662.37 555.315 679.718C532.383 681.216 508.764 681.964 484.733 681.964C460.976 681.964 437.632 681.216 414.837 679.968C401.928 662.62 389.295 644.523 377.211 625.677C365.127 606.831 354.141 587.861 344.254 569.14C354.141 550.294 365.127 531.448 377.074 512.603C389.02 493.757 401.654 475.66 414.562 458.437C437.357 456.939 460.839 456.066 484.733 456.066ZM372.13 462.306C364.028 473.788 356.201 485.52 348.511 497.626C340.821 509.732 333.68 521.838 326.814 533.82C317.065 513.102 308.963 492.759 302.234 473.289C324.205 468.796 347.55 465.176 372.13 462.306ZM597.335 462.431C622.053 465.176 645.672 469.045 667.643 473.538C661.052 493.008 652.675 513.227 642.926 533.945C635.922 521.838 628.507 509.607 620.817 497.501C613.127 485.52 605.3 473.788 597.335 462.431ZM270.238 480.652C279.851 508.983 292.484 538.812 307.864 569.14C292.21 599.967 279.439 630.17 269.689 658.875C263.235 657.253 256.918 655.381 250.739 653.509C211.74 641.403 180.953 625.802 160.753 610.076C140.539 594.351 131.957 579.124 131.957 568.391C131.957 558.032 139.798 544.054 158.721 529.327C177.63 514.6 206.659 499.872 243.736 488.141C252.112 485.52 261.038 483.024 270.238 480.652ZM1473.58 480.902C1408.35 480.902 1361.11 529.327 1361.11 589.358C1361.11 654.133 1409.72 698.314 1476.32 698.314C1513.4 698.314 1544.98 687.206 1566.95 666.613L1550.48 645.521C1532.62 662.245 1506.53 671.73 1480.44 671.73C1431.42 671.73 1401.21 639.156 1398.46 600.092H1582.06V591.979C1582.06 529.701 1542.24 480.902 1473.58 480.902ZM1718.01 480.902C1680.93 480.902 1652.09 492.01 1627.37 515.224L1643.85 537.439C1664.45 517.72 1686.42 508.734 1713.89 508.734C1746.84 508.734 1771.56 524.584 1771.56 552.541V589.858C1752.34 570.513 1726.24 561.527 1696.03 561.527C1657.58 561.527 1616.39 583.368 1616.39 629.671C1616.39 674.726 1657.58 698.314 1696.03 698.314C1726.24 698.314 1752.34 688.454 1771.56 669.609V693.197H1805.89V550.793C1805.89 500.621 1766.07 480.902 1718.01 480.902ZM1970.68 480.902C1903.39 480.902 1856.7 528.079 1856.7 589.358C1856.7 651.137 1903.39 698.314 1970.68 698.314C2011.87 698.314 2036.59 682.838 2054.44 662.245L2031.1 642.526C2015.99 660.997 1996.77 669.609 1973.42 669.609C1923.99 669.609 1893.78 635.287 1893.78 589.358C1893.78 543.43 1923.99 509.607 1973.42 509.607C1996.77 509.607 2015.99 517.72 2031.1 536.565L2054.44 516.846C2036.59 496.253 2011.87 480.902 1970.68 480.902ZM699.776 481.027C707.603 483.148 715.293 485.395 722.571 487.642C760.197 499.373 790.133 514.1 809.77 529.077C829.269 543.929 837.508 558.157 837.508 568.391C837.508 579.249 828.72 594.475 807.71 610.201C786.562 625.927 754.567 641.527 714.195 653.758C709.938 655.006 705.681 656.254 701.287 657.378C691.4 628.922 678.08 598.968 662.15 568.641C677.53 538.687 690.164 509.233 699.776 481.027ZM484.733 505.863C466.494 505.886 449.01 512.481 436.114 524.203C423.217 535.924 415.961 551.815 415.935 568.391C415.924 584.989 423.165 600.912 436.065 612.66C448.966 624.408 466.47 631.02 484.733 631.044C493.787 631.049 502.753 629.431 511.119 626.284C519.485 623.138 527.087 618.523 533.489 612.704C539.891 606.885 544.969 599.977 548.431 592.373C551.893 584.769 553.673 576.62 553.667 568.391C553.642 551.793 546.367 535.883 533.44 524.159C520.514 512.434 502.995 505.853 484.733 505.863ZM1472.2 507.486C1524.38 507.486 1546.36 545.676 1547.73 576.503H1398.46C1400.25 544.803 1424.42 507.486 1472.2 507.486ZM1708.39 584.616C1733.11 584.616 1757.83 593.227 1771.56 610.326V649.39C1757.83 666.613 1733.11 675.1 1708.39 675.1C1675.44 675.1 1652.09 656.254 1652.09 630.17C1652.09 603.461 1675.44 584.616 1708.39 584.616ZM643.337 603.337C653.499 624.554 662.288 645.271 669.154 664.991C646.771 669.609 622.602 673.353 597.335 676.099C605.3 664.492 613.264 652.51 620.954 640.404C628.782 628.048 636.197 615.692 643.337 603.337ZM326.814 604.335C333.68 616.441 340.958 628.547 348.648 640.654C356.475 652.885 364.577 664.866 372.817 676.598C347.824 674.102 323.931 670.607 301.822 666.239C308.551 646.395 316.927 625.677 326.814 604.335ZM678.217 693.821C679.865 699.562 681.238 705.303 682.474 710.795C690.438 747.488 690.988 779.563 686.181 803.276C681.375 827.114 671.076 841.467 660.914 846.833C651.027 852.075 633.725 852.949 610.243 845.46C586.762 837.847 558.199 822.371 528.538 799.157C522.084 794.165 515.63 788.798 509.176 783.057C531.284 761.091 552.981 735.881 573.853 708.423C610.93 705.428 646.084 700.561 678.217 693.821ZM292.896 695.194C325.029 701.684 360.046 706.177 396.848 708.798C418.27 736.255 440.653 761.341 463.036 783.182C458.092 787.55 453.286 791.669 448.343 795.538C417.446 820.125 387.098 836.599 362.106 844.587C336.976 852.699 318.163 851.825 308.001 846.459C298.114 841.342 288.639 828.112 283.97 805.897C279.439 783.681 279.988 753.478 287.266 718.408C288.777 710.919 290.699 703.181 292.896 695.194ZM531.284 710.919C516.316 729.391 501.211 746.364 486.106 761.591C470.589 746.364 454.934 729.391 439.692 711.169C454.522 711.668 469.49 711.918 484.733 711.918C500.387 711.918 515.904 711.543 531.284 710.919Z" fill="white"/>
<path d="M642.376 257H639.904C626.447 257.25 612.166 260.17 597.61 265.062C568.361 274.822 536.64 292.932 504.369 318.467C498.053 323.472 491.599 328.838 485.145 334.455C480.888 330.71 476.631 327.216 472.374 323.721C438.181 296.164 404.538 276.782 373.778 266.335C358.398 261.119 343.43 257.986 329.423 257.686C315.417 257.374 302.371 259.871 290.974 265.911C268.728 277.556 256.644 300.495 251.425 328.339C246.07 356.346 247.443 390.293 255.682 428.483C257.33 436.097 259.253 443.835 261.45 451.822C251.563 454.318 241.95 457.064 232.887 459.935C192.886 472.54 160.533 488.515 137.299 506.487C114.064 524.584 99 545.551 99 568.391C99 591.979 114.833 613.82 139.317 632.791C163.801 651.886 197.967 668.86 240.165 681.84C246.894 683.961 253.76 685.958 260.901 687.83C258.566 696.317 256.506 704.679 254.858 712.792C247.031 750.608 246.07 784.056 251.563 811.388C257.193 838.721 269.689 861.061 291.523 872.418C313.906 884.275 342.606 882.653 373.091 872.918C403.439 863.183 436.533 844.711 470.039 818.003C475.395 813.76 480.75 809.267 486.106 804.524C493.109 810.639 500.112 816.505 507.116 821.872C539.111 846.958 570.42 864.431 599.258 873.666C628.095 882.902 655.696 884.275 677.393 872.793C699.913 860.936 712.684 837.598 718.589 808.767C724.494 779.937 723.395 744.617 714.744 704.929C713.371 698.813 711.86 692.448 710.212 686.208C715.019 684.835 719.825 683.462 724.494 682.089C767.887 669.109 803.178 652.385 828.583 633.415C853.987 614.444 870.465 592.479 870.465 568.391C870.465 545.177 854.673 524.21 830.78 505.988C806.886 487.891 773.792 471.916 733.282 459.311C725.318 456.814 717.078 454.443 708.565 452.197C709.938 447.08 711.311 441.963 712.41 436.845C721.61 396.159 723.258 359.965 717.902 330.473C712.41 300.994 699.776 277.031 676.844 265C666.545 259.559 654.735 257.087 642.376 257ZM640.042 287.141C648.693 286.941 655.559 288.389 660.365 290.947C670.802 296.376 680.826 310.979 685.357 335.341C689.889 359.84 688.653 392.789 680.002 430.73C678.903 435.348 677.805 439.966 676.569 444.708C644.711 437.969 609.969 432.976 573.441 429.856C552.431 402.649 530.46 377.687 508.214 355.846C514.256 350.692 520.024 345.7 525.929 341.082C556.002 317.356 584.976 301.194 609.007 293.181C620.954 289.175 631.391 287.34 640.042 287.141ZM325.853 287.827H329.149C338.349 288.064 349.472 290.074 362.243 294.392C387.784 303.053 418.682 320.476 450.403 346.186C454.247 349.307 458.092 352.551 461.937 355.971C439.692 377.687 417.583 402.524 396.298 429.732C359.908 432.852 325.166 437.844 293.445 444.334C291.386 436.97 289.601 429.732 288.09 422.742C280.4 387.297 279.576 356.346 283.833 333.456C288.227 310.579 297.702 296.975 307.452 291.833C311.984 289.45 318.163 287.989 325.853 287.815V287.827ZM485.145 377.438C500.387 392.29 515.492 409.014 530.46 427.111C515.492 426.487 500.112 426.112 484.733 426.112C469.49 426.112 454.385 426.487 439.417 427.111C454.522 409.014 469.902 392.415 485.145 377.438ZM1108.58 407.142V693.197H1147.85V579.499H1210.61L1290.8 693.197H1337.08L1252.08 576.503C1295.06 573.009 1333.78 544.803 1333.78 493.258C1333.78 440.59 1292.72 407.142 1235.05 407.142H1108.58ZM2106.62 429.357V486.019H2069.55V514.35H2106.62V649.889C2106.62 680.716 2124.47 698.314 2157.43 698.314C2178.03 698.314 2191.76 692.698 2200 684.96L2189.01 660.997C2184.89 665.74 2175.28 669.609 2165.67 669.609C2150.56 669.609 2142.33 658.376 2142.33 643.025V514.35H2189.01V486.019H2142.33V429.357H2106.62ZM1147.85 438.842H1230.38C1267.6 438.842 1293.14 461.183 1293.14 493.258C1293.14 525.458 1267.6 548.172 1230.38 548.172H1147.85V438.842ZM484.733 456.066C508.764 456.066 532.245 456.939 555.041 458.437C567.949 475.66 580.445 493.757 592.392 512.478C604.339 531.199 615.461 550.045 625.486 568.641C615.461 587.486 604.476 606.582 592.392 625.427C580.445 644.273 568.086 662.37 555.315 679.718C532.383 681.216 508.764 681.964 484.733 681.964C460.976 681.964 437.632 681.216 414.837 679.968C401.928 662.62 389.295 644.523 377.211 625.677C365.127 606.831 354.141 587.861 344.254 569.14C354.141 550.294 365.127 531.448 377.074 512.603C389.02 493.757 401.654 475.66 414.562 458.437C437.357 456.939 460.839 456.066 484.733 456.066ZM372.13 462.306C364.028 473.788 356.201 485.52 348.511 497.626C340.821 509.732 333.68 521.838 326.814 533.82C317.065 513.102 308.963 492.759 302.234 473.289C324.205 468.796 347.55 465.176 372.13 462.306ZM597.335 462.431C622.053 465.176 645.672 469.045 667.643 473.538C661.052 493.008 652.675 513.227 642.926 533.945C635.922 521.838 628.507 509.607 620.817 497.501C613.127 485.52 605.3 473.788 597.335 462.431ZM270.238 480.652C279.851 508.983 292.484 538.812 307.864 569.14C292.21 599.967 279.439 630.17 269.689 658.875C263.235 657.253 256.918 655.381 250.739 653.509C211.74 641.403 180.953 625.802 160.753 610.076C140.539 594.351 131.957 579.124 131.957 568.391C131.957 558.032 139.798 544.054 158.721 529.327C177.63 514.6 206.659 499.872 243.736 488.141C252.112 485.52 261.038 483.024 270.238 480.652ZM1473.58 480.902C1408.35 480.902 1361.11 529.327 1361.11 589.358C1361.11 654.133 1409.72 698.314 1476.32 698.314C1513.4 698.314 1544.98 687.206 1566.95 666.613L1550.48 645.521C1532.62 662.245 1506.53 671.73 1480.44 671.73C1431.42 671.73 1401.21 639.156 1398.46 600.092H1582.06V591.979C1582.06 529.701 1542.24 480.902 1473.58 480.902ZM1718.01 480.902C1680.93 480.902 1652.09 492.01 1627.37 515.224L1643.85 537.439C1664.45 517.72 1686.42 508.734 1713.89 508.734C1746.84 508.734 1771.56 524.584 1771.56 552.541V589.858C1752.34 570.513 1726.24 561.527 1696.03 561.527C1657.58 561.527 1616.39 583.368 1616.39 629.671C1616.39 674.726 1657.58 698.314 1696.03 698.314C1726.24 698.314 1752.34 688.454 1771.56 669.609V693.197H1805.89V550.793C1805.89 500.621 1766.07 480.902 1718.01 480.902ZM1970.68 480.902C1903.39 480.902 1856.7 528.079 1856.7 589.358C1856.7 651.137 1903.39 698.314 1970.68 698.314C2011.87 698.314 2036.59 682.838 2054.44 662.245L2031.1 642.526C2015.99 660.997 1996.77 669.609 1973.42 669.609C1923.99 669.609 1893.78 635.287 1893.78 589.358C1893.78 543.43 1923.99 509.607 1973.42 509.607C1996.77 509.607 2015.99 517.72 2031.1 536.565L2054.44 516.846C2036.59 496.253 2011.87 480.902 1970.68 480.902ZM699.776 481.027C707.603 483.148 715.293 485.395 722.571 487.642C760.197 499.373 790.133 514.1 809.77 529.077C829.269 543.929 837.508 558.157 837.508 568.391C837.508 579.249 828.72 594.475 807.71 610.201C786.562 625.927 754.567 641.527 714.195 653.758C709.938 655.006 705.681 656.254 701.287 657.378C691.4 628.922 678.08 598.968 662.15 568.641C677.53 538.687 690.164 509.233 699.776 481.027ZM484.733 505.863C466.494 505.886 449.01 512.481 436.114 524.203C423.217 535.924 415.961 551.815 415.935 568.391C415.924 584.989 423.165 600.912 436.065 612.66C448.966 624.408 466.47 631.02 484.733 631.044C493.787 631.049 502.753 629.431 511.119 626.284C519.485 623.138 527.087 618.523 533.489 612.704C539.891 606.885 544.969 599.977 548.431 592.373C551.893 584.769 553.673 576.62 553.667 568.391C553.642 551.793 546.367 535.883 533.44 524.159C520.514 512.434 502.995 505.853 484.733 505.863ZM1472.2 507.486C1524.38 507.486 1546.36 545.676 1547.73 576.503H1398.46C1400.25 544.803 1424.42 507.486 1472.2 507.486ZM1708.39 584.616C1733.11 584.616 1757.83 593.227 1771.56 610.326V649.39C1757.83 666.613 1733.11 675.1 1708.39 675.1C1675.44 675.1 1652.09 656.254 1652.09 630.17C1652.09 603.461 1675.44 584.616 1708.39 584.616ZM643.337 603.337C653.499 624.554 662.288 645.271 669.154 664.991C646.771 669.609 622.602 673.353 597.335 676.099C605.3 664.492 613.264 652.51 620.954 640.404C628.782 628.048 636.197 615.692 643.337 603.337ZM326.814 604.335C333.68 616.441 340.958 628.547 348.648 640.654C356.475 652.885 364.577 664.866 372.817 676.598C347.824 674.102 323.931 670.607 301.822 666.239C308.551 646.395 316.927 625.677 326.814 604.335ZM678.217 693.821C679.865 699.562 681.238 705.303 682.474 710.795C690.438 747.488 690.988 779.563 686.181 803.276C681.375 827.114 671.076 841.467 660.914 846.833C651.027 852.075 633.725 852.949 610.243 845.46C586.762 837.847 558.199 822.371 528.538 799.157C522.084 794.165 515.63 788.798 509.176 783.057C531.284 761.091 552.981 735.881 573.853 708.423C610.93 705.428 646.084 700.561 678.217 693.821ZM292.896 695.194C325.029 701.684 360.046 706.177 396.848 708.798C418.27 736.255 440.653 761.341 463.036 783.182C458.092 787.55 453.286 791.669 448.343 795.538C417.446 820.125 387.098 836.599 362.106 844.587C336.976 852.699 318.163 851.825 308.001 846.459C298.114 841.342 288.639 828.112 283.97 805.897C279.439 783.681 279.988 753.478 287.266 718.408C288.777 710.919 290.699 703.181 292.896 695.194ZM531.284 710.919C516.316 729.391 501.211 746.364 486.106 761.591C470.589 746.364 454.934 729.391 439.692 711.169C454.522 711.668 469.49 711.918 484.733 711.918C500.387 711.918 515.904 711.543 531.284 710.919Z" stroke="white" stroke-width="10" mask="url(#path-1-outside-1_1317_181)"/>
</svg>
