<svg width="2300" height="1137" viewBox="0 0 2300 1137" fill="none" xmlns="http://www.w3.org/2000/svg">
<path d="M843.65 438.801C807.073 438.801 788.784 452.562 788.784 480.082C787.983 485.998 788.716 492.02 790.912 497.571C793.108 503.122 796.693 508.016 801.325 511.782C817.348 520.301 834.639 526.182 852.533 529.2C872.244 532.176 891.012 539.624 907.4 550.973C913.214 556.858 917.663 563.949 920.433 571.745C923.202 579.541 924.223 587.85 923.424 596.085C923.424 647.99 896.484 673.943 842.605 673.943C820.186 673.511 797.829 671.415 775.721 667.672L762.483 665.93L765.444 642.591C790.543 646.328 815.845 648.538 841.212 649.209C877.325 649.209 895.381 632.256 895.381 598.349C895.944 592.756 895.144 587.111 893.052 581.894C890.959 576.677 887.635 572.044 883.363 568.39C869.598 560.537 854.357 555.615 838.599 553.934C816.856 550.652 796.102 542.624 777.811 530.419C771.431 524.194 766.548 516.6 763.531 508.212C760.514 499.824 759.441 490.861 760.393 481.998C760.393 436.595 787.565 413.894 841.908 413.894C863.375 414.172 884.795 415.977 906.006 419.293L918.373 421.209L915.76 444.898C891.845 441.618 867.776 439.583 843.65 438.801ZM1091.68 648.338L1102.31 647.293V668.891C1078.66 672.497 1054.8 674.476 1030.89 674.814C1020.42 675.881 1009.84 674.359 1000.09 670.38C990.341 666.402 981.718 660.089 974.981 651.996C962.34 630.552 956.566 605.753 958.434 580.931C958.434 516.834 983.922 484.785 1034.9 484.785C1045.06 483.992 1055.27 485.437 1064.81 489.018C1074.35 492.599 1082.99 498.229 1090.11 505.512C1103.85 524.254 1110.34 547.327 1108.4 570.481L1107.01 591.382H986.999C985.824 607.144 989.665 622.874 997.973 636.32C1002.72 641.599 1008.66 645.678 1015.29 648.221C1021.92 650.764 1029.06 651.7 1036.12 650.951C1054.35 650.603 1072.87 649.732 1091.68 648.338ZM1082.45 568.39C1083.92 551.8 1080.15 535.166 1071.65 520.84C1067.34 515.952 1061.94 512.146 1055.89 509.725C1049.84 507.305 1043.31 506.339 1036.81 506.905C1030.01 506.406 1023.17 507.464 1016.84 509.999C1010.5 512.534 1004.82 516.48 1000.24 521.536C990.532 535.165 985.742 551.684 986.651 568.39H1082.45ZM1212.74 674.639C1202.93 675.497 1193.06 673.983 1183.97 670.223C1174.87 666.464 1166.82 660.571 1160.48 653.041C1147.98 630.799 1142.45 605.309 1144.63 579.886C1142.22 553.923 1148.94 527.933 1163.62 506.383C1176.27 491.752 1198.68 484.436 1230.85 484.436L1291.99 488.094V752.149H1264.29V662.621C1248.21 670.41 1230.6 674.515 1212.74 674.639ZM1230.15 508.125C1221.54 507.051 1212.8 508.074 1204.68 511.107C1196.55 514.14 1189.27 519.092 1183.47 525.542C1174.05 542.151 1169.8 561.196 1171.28 580.235C1169.92 598.748 1173.4 617.296 1181.38 634.056C1185.03 639.552 1190.1 643.959 1196.05 646.811C1201.99 649.663 1208.6 650.852 1215.17 650.254C1229.6 650.212 1243.89 647.495 1257.32 642.242L1263.94 639.629V510.389C1249.08 508.995 1237.99 508.299 1230.68 508.299L1230.15 508.125ZM1458.5 488.094H1486.02V670.982H1458.5V658.267C1442.29 668.602 1423.55 674.267 1404.33 674.639C1379.48 674.639 1362.94 668.195 1354.69 655.306C1344.65 632.794 1340.45 608.11 1342.5 583.544V488.094H1369.84V583.196C1368.52 601.308 1370.89 619.5 1376.81 636.668C1381.46 645.726 1391.96 650.254 1408.34 650.254C1416.65 650.225 1424.91 649.053 1432.9 646.771C1439.42 645.085 1445.77 642.811 1451.88 639.978L1458.5 636.668V488.094ZM1662.99 648.338L1673.61 647.293V668.891C1649.97 672.497 1626.11 674.476 1602.2 674.814C1591.72 675.881 1581.15 674.359 1571.4 670.38C1561.65 666.402 1553.02 660.089 1546.29 651.996C1533.65 630.552 1527.87 605.753 1529.74 580.931C1529.74 516.834 1555.23 484.785 1606.2 484.785C1616.36 483.992 1626.57 485.437 1636.11 489.018C1645.65 492.599 1654.29 498.229 1661.42 505.512C1675.15 524.254 1681.65 547.327 1679.71 570.481L1678.31 591.382H1558.48C1557.62 607.044 1561.7 622.58 1570.15 635.798C1574.9 641.077 1580.83 645.155 1587.46 647.699C1594.09 650.242 1601.23 651.177 1608.29 650.429C1625.94 650.429 1644.18 649.732 1662.99 648.338ZM1653.06 568.39C1654.53 551.8 1650.76 535.166 1642.26 520.84C1637.95 515.952 1632.55 512.146 1626.5 509.725C1620.45 507.305 1613.92 506.339 1607.42 506.905C1600.62 506.406 1593.78 507.464 1587.45 509.999C1581.11 512.534 1575.43 516.48 1570.85 521.536C1561.39 535.253 1556.85 551.766 1557.96 568.39H1653.06ZM1725.52 670.982V408.32H1753.04V670.982H1725.52ZM1807.9 446.465V414.939H1835.25V446.465H1807.9ZM1807.9 670.633V488.094H1835.25V670.982L1807.9 670.633ZM1877.05 512.653V488.094H2012.74V512.653L1910.32 646.597H2012.74V671.156H1877.05V646.423L1979.47 512.479L1877.05 512.653ZM2177.69 648.338L2188.31 647.293V668.891C2164.67 672.497 2140.81 674.476 2116.9 674.814C2106.42 675.881 2095.84 674.359 2086.09 670.38C2076.35 666.402 2067.72 660.089 2060.99 651.996C2048.34 630.552 2042.57 605.753 2044.44 580.931C2044.44 516.834 2069.93 484.785 2120.9 484.785C2131.06 483.992 2141.27 485.437 2150.81 489.018C2160.35 492.599 2168.99 498.229 2176.12 505.512C2189.85 524.254 2196.35 547.327 2194.41 570.481L2193.01 591.382H2072.31C2071.13 607.144 2074.97 622.874 2083.28 636.32C2088.03 641.599 2093.96 645.678 2100.59 648.221C2107.22 650.764 2114.36 651.7 2121.43 650.951C2140.12 650.603 2158.87 649.732 2177.69 648.338ZM2167.76 568.39C2169.23 551.8 2165.45 535.166 2156.96 520.84C2152.65 515.952 2147.25 512.146 2141.2 509.725C2135.15 507.305 2128.61 506.339 2122.12 506.905C2115.31 506.406 2108.48 507.464 2102.14 509.999C2095.81 512.534 2090.13 516.48 2085.54 521.536C2076.21 535.297 2071.79 551.806 2073 568.39H2167.76ZM612.167 445.072V691.361L403.152 815.202L401.236 816.943V909.084L403.152 910.826L697.863 740.479V397.347H695.076L612.167 443.156V445.246" fill="white"/>
<path d="M193.091 693.451L403.151 815.376V911L107.047 739.957V398.044H110.008L192.046 446.465L192.917 449.252V693.451" fill="white"/>
<path d="M193.089 448.555L106 398.043L403.149 227L699.253 397.347L612.163 445.072L403.149 324.54L194.134 447.684M213.294 679.865V579.538L215.558 580.931L296.203 627.959V725.151L213.294 679.865ZM509.049 727.938V629.875L588.301 583.544L590.739 582.15V679.516L508.527 728.112M406.632 788.204L404.368 785.939V690.315L407.155 689.27L486.406 642.939L488.845 641.545V738.737L406.632 788.204Z" fill="white"/>
<path d="M323.025 742.569V642.067L325.289 643.287L405.934 690.315V788.203L323.025 742.569ZM398.096 340.738L316.058 389.508L399.664 438.104L481.876 390.031L398.27 340.738M213.292 548.708V449.774H215.557L296.201 496.802V594.691L212.596 549.056" fill="white"/>
<path d="M295.681 401.004L213.295 449.774L297.075 498.718L379.287 450.645L295.681 401.353M509.05 596.607V498.37L588.302 452.039H590.74V547.314L508.528 595.91" fill="white"/>
<path d="M507.657 403.443L425.445 452.039L509.051 500.635L591.263 452.562L507.657 403.443ZM406.633 657.047L404.369 655.48V562.294L406.633 561.075V558.811L485.885 512.479H488.323V608.452L406.633 657.047Z" fill="white"/>
<path d="M323.025 611.412V512.305H325.289L405.934 559.333V657.221L322.328 611.587" fill="white"/>
<path d="M405.412 463.883L323.025 512.305L406.631 560.901L488.844 512.827L405.412 463.883Z" fill="white"/>
</svg>
