<svg width="3682" height="1145" viewBox="0 0 3682 1145" fill="none" xmlns="http://www.w3.org/2000/svg">
<path d="M439.186 370C341.781 370 281.069 419.085 256.911 516.315C293.493 467.424 336.287 449.396 384.603 461.792C412.212 468.694 432.312 488.764 454.289 511.511C490.18 548.063 531.594 590.245 622.097 590.245C719.364 590.245 780.104 541.161 804.262 443.903C767.708 492.849 724.886 510.849 676.57 498.453C648.961 491.552 628.999 471.509 606.884 448.762C570.992 412.21 529.551 370 439.186 370ZM1651.84 383.168V757.9H1707.05V383.141L1651.84 383.168ZM1560.06 392.113C1540.74 392.113 1524.89 407.959 1524.89 427.256C1524.89 445.918 1540.76 462.51 1560.06 462.51C1579.36 462.51 1595.95 445.946 1595.32 427.256C1595.32 407.959 1579.39 392.113 1560.06 392.113ZM2195.07 392.113C2175.75 392.113 2159.9 407.959 2159.9 427.256C2159.9 445.946 2175.77 462.51 2195.07 462.51C2215.15 462.51 2230.97 445.946 2230.33 427.256C2230.33 407.959 2214.4 392.113 2195.07 392.113ZM2784.58 398.352V537.047C2765.26 510.076 2734.86 493.595 2694.85 493.595C2625.06 493.595 2567.16 552.259 2567.16 628.812C2567.16 704.73 2625.06 764.139 2694.85 764.139C2734.86 764.139 2765.26 747.575 2784.58 720.576V757.9H2839.8V398.38L2784.58 398.352ZM1105.28 415.606L1050.07 432.115V501.131H1003.05V554.302H1050.07V677.869C1050.07 744.704 1083.86 768.253 1169.45 757.9V708.181C1127.29 710.224 1105.95 710.969 1105.95 677.869V554.302H1168.7V501.131H1105.28V415.606ZM1322.71 493.595C1252.91 493.595 1195.01 552.259 1195.01 628.812C1195.01 704.73 1252.94 764.139 1322.71 764.139C1362.74 764.139 1393.03 747.575 1412.44 720.576V757.9H1467.66V501.131H1412.44V537.02C1393 510.076 1362.71 493.595 1322.71 493.595ZM2422.21 494.23C2387.7 494.23 2360.09 507.398 2342.84 535.005V501.877H2287.62V758.535H2342.84V620.502C2342.84 568.105 2371.83 546.737 2408.41 546.737C2442.92 546.737 2465.67 566.697 2465.67 606.064V757.9H2520.89V599.797C2520.89 533.597 2479.48 494.23 2422.21 494.23ZM3025.42 494.23C2947.45 494.23 2889.53 552.866 2889.53 629.557C2889.53 705.475 2948.22 764.802 3025.42 764.802C3075.92 764.802 3120.01 738.576 3140.71 697.828L3093.14 670.967C3080.61 694.35 3055.82 710.224 3024.76 710.224C2979.89 710.224 2945.38 675.715 2945.38 629.557C2945.38 583.288 2979.26 548.78 3024.76 548.78C3055.82 548.78 3081.38 563.992 3092.4 588.147L3140.05 560.541C3119.35 520.428 3075.92 494.23 3025.42 494.23ZM3270.45 494.975C3218.05 494.975 3176.61 525.287 3176.61 573.599C3176.61 665.335 3314.65 639.937 3314.65 685.405C3314.65 706.11 3295.99 714.448 3271.2 714.448C3242.81 714.448 3222.11 700.644 3213.93 677.123L3166.25 704.73C3182.85 741.281 3220.09 764.802 3271.2 764.802C3326.41 764.802 3371.28 736.56 3371.28 685.433C3371.28 590.19 3233.23 618.487 3233.23 571.556C3233.23 553.611 3250.52 544.584 3270.45 545.329C3291.93 545.329 3309.82 554.274 3318.77 574.344L3365.78 548.035C3347.76 514.3 3312.64 494.975 3270.45 494.975ZM3507.28 494.975C3454.74 494.975 3413.36 525.287 3413.36 573.599C3413.36 665.335 3551.4 639.937 3551.4 685.405C3551.4 706.11 3532.71 714.448 3507.92 714.448C3479.64 714.448 3458.94 700.644 3450.66 677.123L3403 704.73C3419.57 741.281 3456.78 764.802 3507.92 764.802C3563.14 764.802 3608 736.56 3608 685.433C3608 590.19 3469.95 618.487 3469.95 571.556C3469.95 553.611 3487.24 544.584 3507.28 545.329C3528.65 545.329 3546.54 554.274 3555.6 574.344L3602.53 548.035C3584.48 514.3 3549.33 494.975 3507.28 494.975ZM1532.48 501.131V757.873H1587.7V501.131H1532.48ZM1749.27 501.131L1830.03 757.873H1884.5L1938.34 584.697L1991.48 757.9H2046.07L2126.82 501.131H2068.15L2017.63 678.531L1964.62 501.131H1911.47L1857.55 678.531L1807.91 501.131H1749.24H1749.27ZM2167.49 501.131V757.873H2222.71V501.131H2167.49ZM1330.91 547.4C1377.18 547.4 1412.44 581.908 1412.44 629.557C1412.44 677.096 1377.18 711.632 1330.91 711.632C1284.74 711.632 1250.23 677.123 1249.46 629.557C1249.46 581.881 1284.77 547.4 1330.91 547.4ZM2703.17 547.4C2749.33 547.4 2784.58 581.908 2784.58 629.557C2784.58 677.096 2749.33 711.632 2703.14 711.632C2656.89 711.632 2621.61 677.123 2621.61 629.557C2621.61 581.881 2656.92 547.4 2703.17 547.4ZM256.303 588.81C158.898 588.81 98.1856 637.784 74 735.125C110.555 686.096 153.376 668.179 201.692 680.574C229.302 687.476 249.373 707.546 271.35 730.266C307.27 766.845 348.656 809 439.159 809C536.426 809 597.166 759.943 621.324 662.685C584.769 711.632 541.948 729.659 493.632 717.125C466.022 710.224 446.089 690.264 423.974 667.516C388.717 630.827 347.303 588.81 256.303 588.81Z" fill="white"/>
</svg>
