<svg width="2200" height="1137" viewBox="0 0 2200 1137" fill="none" xmlns="http://www.w3.org/2000/svg">
<mask id="path-1-outside-1_1317_161" maskUnits="userSpaceOnUse" x="93" y="319" width="2020" height="467" fill="black">
<rect fill="white" x="93" y="319" width="2020" height="467"/>
<path d="M344.37 364.578H241.528V667.925H199.842V364.578H97V328.243H343.453V364.503H344.378L344.37 364.578ZM541.733 425.594L424.983 706.832C403.67 757.243 374.952 782 336.965 782C326.779 782 317.509 781.117 310.089 779.345V744.842C318.426 747.498 326.763 749.33 334.176 749.33C354.548 749.33 370.314 737.834 380.5 713.953L400.872 667.955L301.736 425.624H347.136L415.697 612.234C416.622 614.889 418.479 621.074 421.182 630.805H423.032C423.956 627.267 425.813 621.082 427.733 613.116L500.001 425.624H541.686L541.733 425.594ZM610.295 633.43H609.448V780.25H568.68V426.492H609.448V468.944H610.373C630.745 437.105 659.479 420.306 698.39 420.306C730.83 420.306 756.766 430.927 775.289 453.028C793.812 475.13 803.082 503.439 803.082 540.582C803.082 581.269 792.895 613.984 772.507 637.865C752.119 661.747 723.401 674.125 687.256 674.125C653.9 674.125 628.881 660.857 610.357 633.438L610.295 633.43ZM609.448 535.271V568.876C609.448 589.22 615.936 606.018 629.821 620.169C643.706 634.32 660.395 641.396 681.708 641.396C706.727 641.396 725.259 632.555 740.083 613.977C754.909 595.398 761.396 570.641 761.396 538.809C761.396 511.39 754.908 491.053 741.941 475.13C728.973 460.171 711.366 452.139 689.129 452.139C665.042 452.139 646.503 460.096 631.694 476.02C616.884 491.944 609.448 511.382 609.448 535.271ZM1054.18 556.498H874.433C875.357 583.917 882.77 604.253 897.595 619.287C912.42 634.32 931.875 641.396 957.819 641.396C986.544 641.396 1012.48 632.555 1036.57 613.977V650.236C1014.33 666.152 984.68 673.228 947.617 673.228C911.479 673.228 883.679 662.607 863.306 640.506C842.934 618.404 832.732 587.44 832.732 547.642C832.732 509.61 843.858 479.543 866.088 455.669C888.317 431.795 916.118 420.291 949.474 420.291C982.83 420.291 1008.77 430.912 1026.37 451.256C1044.9 471.6 1053.25 499.894 1053.25 537.044V556.49H1054.17L1054.18 556.498ZM1012.5 523.775C1012.5 501.667 1007.01 483.985 995.822 471.6C984.633 459.214 968.946 453.028 949.498 453.028C930.05 453.028 914.292 459.221 900.392 472.475C887.424 485.743 879.079 502.542 875.373 523.768L1012.5 523.775ZM1076.43 656.437V629.907C1102.29 645.823 1127.39 652.899 1154.27 652.899C1182.06 652.899 1203.37 647.663 1217.26 636.093C1232.09 625.472 1238.58 609.564 1238.58 590.095C1238.58 572.406 1233.88 559.13 1223.75 548.525C1214.49 537.904 1193.18 523.843 1160.75 506.072C1124.62 485.728 1101.45 468.929 1092.19 455.661C1082.47 441.795 1077.31 425.473 1077.37 408.788C1077.37 384.907 1087.55 364.57 1107.02 347.757C1126.48 330.943 1152.38 323 1184.82 323C1206.14 323 1227.45 326.538 1248.76 333.621V358.303C1227.73 349.512 1205.01 344.994 1182.05 345.034C1157.96 345.034 1138.5 351.227 1124.62 362.723C1110.73 374.219 1103.3 389.252 1103.3 406.941C1103.3 424.629 1108 437.905 1118.13 448.511C1127.39 459.132 1148.7 472.393 1181.13 490.081C1214.48 507.77 1236.72 523.686 1247.84 537.837C1258.96 551.988 1264.51 567.904 1264.51 586.475C1264.51 612.129 1255.25 633.348 1235.79 650.154C1217.26 666.96 1190.39 674.836 1155.18 674.836C1143.14 674.836 1129.32 673.071 1112.56 669.6C1097.73 665.113 1085.68 660.76 1076.42 656.332L1076.43 656.437ZM1479.47 657.319C1460.94 667.94 1437.78 674.125 1411.83 674.125C1377.55 674.125 1349.76 662.63 1328.44 640.521C1307.13 617.529 1296.94 588.345 1296.94 551.195C1296.94 512.28 1308.99 481.338 1333.08 456.566C1357.18 431.795 1387.74 419.424 1424.81 419.424C1444.26 419.424 1462.79 422.962 1481.32 430.92V455.601C1463.21 445.016 1442.34 439.501 1421.1 439.685C1391.45 439.685 1367.36 450.306 1348.83 470.65C1330.3 490.994 1320.92 517.575 1320.92 550.38C1320.92 582.219 1329.26 606.983 1345.94 626.445C1362.62 645.906 1384.85 654.746 1412.65 654.746C1437.67 654.746 1459.9 648.553 1479.36 635.3V657.409L1479.47 657.319ZM1633.28 448.601C1625.87 443.365 1616.61 440.643 1606.4 440.643C1586.03 440.643 1569.34 450.366 1556.37 469.827C1542.47 489.273 1536 517.583 1536 553.843V667.932H1513.68V425.602H1535.91V479.55H1536.84C1542.32 460.979 1551.66 446.828 1564.63 436.215C1577.6 425.602 1591.51 421.256 1608.17 421.256C1617.44 421.256 1625.78 423.021 1633.19 425.744V448.735L1633.28 448.601ZM1672.19 364.585C1667.49 364.585 1662.93 362.82 1659.22 359.35C1655.52 355.879 1653.74 351.392 1653.74 346.081C1653.74 340.771 1655.59 336.358 1659.22 333.703C1662.93 330.165 1667.56 329.215 1672.19 329.215C1677.68 329.215 1681.45 330.98 1686.09 333.703C1689.8 337.241 1691.58 340.778 1691.58 346.081C1691.58 351.384 1689.73 355.805 1686.09 359.35C1681.39 362.887 1677.75 364.585 1672.19 364.585ZM1661.06 668.815V426.484H1684.23V668.815H1660.99H1661.06ZM1763.91 625.48H1762.98V780.25H1739.82V426.492H1762.98V476.902H1763.91C1773.17 459.214 1786.14 445.063 1802.82 435.332C1819.49 425.602 1838.02 421.181 1858.41 421.181C1890.85 421.181 1915.85 431.802 1934.39 453.021C1952.92 474.24 1961.26 503.432 1961.26 539.692C1961.26 580.379 1951.08 613.094 1929.76 637.858C1909.39 662.54 1881.57 675 1847.3 675C1810.24 674.118 1782.45 658.194 1763.91 625.472L1763.91 625.48ZM1762.98 535.279V566.243C1762.98 590.925 1771.32 611.344 1787.07 629.032C1802.82 646.721 1824.13 655.562 1850.07 655.562C1876 655.562 1897.32 644.941 1913.07 623.722C1928.81 602.503 1937.15 574.194 1937.15 539.706C1937.15 509.64 1929.74 484.883 1914.91 467.187C1900.09 449.491 1879.71 440.658 1855.61 440.658C1825.96 440.658 1802.8 450.381 1787.05 468.96C1771.3 487.538 1762.97 509.647 1762.97 535.286L1762.98 535.279ZM2102.99 665.27C2090.95 670.505 2079.83 673.228 2069.64 673.228C2031.65 673.228 2013.12 652.001 2013.12 608.666V445.938H1967.72V425.594H2013.12V362.805C2016.82 361.923 2020.53 360.15 2024.24 359.267C2027.96 358.385 2031.66 356.612 2035.37 355.73V426.484H2102.08V446.828H2035.37V606.901C2035.37 623.707 2038.15 636.085 2043.71 643.161C2049.26 650.236 2058.53 654.657 2071.5 654.657C2080.76 654.657 2090.96 652.001 2102.08 645.816V665.262H2103L2102.99 665.27Z"/>
</mask>
<path d="M344.37 364.578H241.528V667.925H199.842V364.578H97V328.243H343.453V364.503H344.378L344.37 364.578ZM541.733 425.594L424.983 706.832C403.67 757.243 374.952 782 336.965 782C326.779 782 317.509 781.117 310.089 779.345V744.842C318.426 747.498 326.763 749.33 334.176 749.33C354.548 749.33 370.314 737.834 380.5 713.953L400.872 667.955L301.736 425.624H347.136L415.697 612.234C416.622 614.889 418.479 621.074 421.182 630.805H423.032C423.956 627.267 425.813 621.082 427.733 613.116L500.001 425.624H541.686L541.733 425.594ZM610.295 633.43H609.448V780.25H568.68V426.492H609.448V468.944H610.373C630.745 437.105 659.479 420.306 698.39 420.306C730.83 420.306 756.766 430.927 775.289 453.028C793.812 475.13 803.082 503.439 803.082 540.582C803.082 581.269 792.895 613.984 772.507 637.865C752.119 661.747 723.401 674.125 687.256 674.125C653.9 674.125 628.881 660.857 610.357 633.438L610.295 633.43ZM609.448 535.271V568.876C609.448 589.22 615.936 606.018 629.821 620.169C643.706 634.32 660.395 641.396 681.708 641.396C706.727 641.396 725.259 632.555 740.083 613.977C754.909 595.398 761.396 570.641 761.396 538.809C761.396 511.39 754.908 491.053 741.941 475.13C728.973 460.171 711.366 452.139 689.129 452.139C665.042 452.139 646.503 460.096 631.694 476.02C616.884 491.944 609.448 511.382 609.448 535.271ZM1054.18 556.498H874.433C875.357 583.917 882.77 604.253 897.595 619.287C912.42 634.32 931.875 641.396 957.819 641.396C986.544 641.396 1012.48 632.555 1036.57 613.977V650.236C1014.33 666.152 984.68 673.228 947.617 673.228C911.479 673.228 883.679 662.607 863.306 640.506C842.934 618.404 832.732 587.44 832.732 547.642C832.732 509.61 843.858 479.543 866.088 455.669C888.317 431.795 916.118 420.291 949.474 420.291C982.83 420.291 1008.77 430.912 1026.37 451.256C1044.9 471.6 1053.25 499.894 1053.25 537.044V556.49H1054.17L1054.18 556.498ZM1012.5 523.775C1012.5 501.667 1007.01 483.985 995.822 471.6C984.633 459.214 968.946 453.028 949.498 453.028C930.05 453.028 914.292 459.221 900.392 472.475C887.424 485.743 879.079 502.542 875.373 523.768L1012.5 523.775ZM1076.43 656.437V629.907C1102.29 645.823 1127.39 652.899 1154.27 652.899C1182.06 652.899 1203.37 647.663 1217.26 636.093C1232.09 625.472 1238.58 609.564 1238.58 590.095C1238.58 572.406 1233.88 559.13 1223.75 548.525C1214.49 537.904 1193.18 523.843 1160.75 506.072C1124.62 485.728 1101.45 468.929 1092.19 455.661C1082.47 441.795 1077.31 425.473 1077.37 408.788C1077.37 384.907 1087.55 364.57 1107.02 347.757C1126.48 330.943 1152.38 323 1184.82 323C1206.14 323 1227.45 326.538 1248.76 333.621V358.303C1227.73 349.512 1205.01 344.994 1182.05 345.034C1157.96 345.034 1138.5 351.227 1124.62 362.723C1110.73 374.219 1103.3 389.252 1103.3 406.941C1103.3 424.629 1108 437.905 1118.13 448.511C1127.39 459.132 1148.7 472.393 1181.13 490.081C1214.48 507.77 1236.72 523.686 1247.84 537.837C1258.96 551.988 1264.51 567.904 1264.51 586.475C1264.51 612.129 1255.25 633.348 1235.79 650.154C1217.26 666.96 1190.39 674.836 1155.18 674.836C1143.14 674.836 1129.32 673.071 1112.56 669.6C1097.73 665.113 1085.68 660.76 1076.42 656.332L1076.43 656.437ZM1479.47 657.319C1460.94 667.94 1437.78 674.125 1411.83 674.125C1377.55 674.125 1349.76 662.63 1328.44 640.521C1307.13 617.529 1296.94 588.345 1296.94 551.195C1296.94 512.28 1308.99 481.338 1333.08 456.566C1357.18 431.795 1387.74 419.424 1424.81 419.424C1444.26 419.424 1462.79 422.962 1481.32 430.92V455.601C1463.21 445.016 1442.34 439.501 1421.1 439.685C1391.45 439.685 1367.36 450.306 1348.83 470.65C1330.3 490.994 1320.92 517.575 1320.92 550.38C1320.92 582.219 1329.26 606.983 1345.94 626.445C1362.62 645.906 1384.85 654.746 1412.65 654.746C1437.67 654.746 1459.9 648.553 1479.36 635.3V657.409L1479.47 657.319ZM1633.28 448.601C1625.87 443.365 1616.61 440.643 1606.4 440.643C1586.03 440.643 1569.34 450.366 1556.37 469.827C1542.47 489.273 1536 517.583 1536 553.843V667.932H1513.68V425.602H1535.91V479.55H1536.84C1542.32 460.979 1551.66 446.828 1564.63 436.215C1577.6 425.602 1591.51 421.256 1608.17 421.256C1617.44 421.256 1625.78 423.021 1633.19 425.744V448.735L1633.28 448.601ZM1672.19 364.585C1667.49 364.585 1662.93 362.82 1659.22 359.35C1655.52 355.879 1653.74 351.392 1653.74 346.081C1653.74 340.771 1655.59 336.358 1659.22 333.703C1662.93 330.165 1667.56 329.215 1672.19 329.215C1677.68 329.215 1681.45 330.98 1686.09 333.703C1689.8 337.241 1691.58 340.778 1691.58 346.081C1691.58 351.384 1689.73 355.805 1686.09 359.35C1681.39 362.887 1677.75 364.585 1672.19 364.585ZM1661.06 668.815V426.484H1684.23V668.815H1660.99H1661.06ZM1763.91 625.48H1762.98V780.25H1739.82V426.492H1762.98V476.902H1763.91C1773.17 459.214 1786.14 445.063 1802.82 435.332C1819.49 425.602 1838.02 421.181 1858.41 421.181C1890.85 421.181 1915.85 431.802 1934.39 453.021C1952.92 474.24 1961.26 503.432 1961.26 539.692C1961.26 580.379 1951.08 613.094 1929.76 637.858C1909.39 662.54 1881.57 675 1847.3 675C1810.24 674.118 1782.45 658.194 1763.91 625.472L1763.91 625.48ZM1762.98 535.279V566.243C1762.98 590.925 1771.32 611.344 1787.07 629.032C1802.82 646.721 1824.13 655.562 1850.07 655.562C1876 655.562 1897.32 644.941 1913.07 623.722C1928.81 602.503 1937.15 574.194 1937.15 539.706C1937.15 509.64 1929.74 484.883 1914.91 467.187C1900.09 449.491 1879.71 440.658 1855.61 440.658C1825.96 440.658 1802.8 450.381 1787.05 468.96C1771.3 487.538 1762.97 509.647 1762.97 535.286L1762.98 535.279ZM2102.99 665.27C2090.95 670.505 2079.83 673.228 2069.64 673.228C2031.65 673.228 2013.12 652.001 2013.12 608.666V445.938H1967.72V425.594H2013.12V362.805C2016.82 361.923 2020.53 360.15 2024.24 359.267C2027.96 358.385 2031.66 356.612 2035.37 355.73V426.484H2102.08V446.828H2035.37V606.901C2035.37 623.707 2038.15 636.085 2043.71 643.161C2049.26 650.236 2058.53 654.657 2071.5 654.657C2080.76 654.657 2090.96 652.001 2102.08 645.816V665.262H2103L2102.99 665.27Z" fill="white"/>
<path d="M344.37 364.578H241.528V667.925H199.842V364.578H97V328.243H343.453V364.503H344.378L344.37 364.578ZM541.733 425.594L424.983 706.832C403.67 757.243 374.952 782 336.965 782C326.779 782 317.509 781.117 310.089 779.345V744.842C318.426 747.498 326.763 749.33 334.176 749.33C354.548 749.33 370.314 737.834 380.5 713.953L400.872 667.955L301.736 425.624H347.136L415.697 612.234C416.622 614.889 418.479 621.074 421.182 630.805H423.032C423.956 627.267 425.813 621.082 427.733 613.116L500.001 425.624H541.686L541.733 425.594ZM610.295 633.43H609.448V780.25H568.68V426.492H609.448V468.944H610.373C630.745 437.105 659.479 420.306 698.39 420.306C730.83 420.306 756.766 430.927 775.289 453.028C793.812 475.13 803.082 503.439 803.082 540.582C803.082 581.269 792.895 613.984 772.507 637.865C752.119 661.747 723.401 674.125 687.256 674.125C653.9 674.125 628.881 660.857 610.357 633.438L610.295 633.43ZM609.448 535.271V568.876C609.448 589.22 615.936 606.018 629.821 620.169C643.706 634.32 660.395 641.396 681.708 641.396C706.727 641.396 725.259 632.555 740.083 613.977C754.909 595.398 761.396 570.641 761.396 538.809C761.396 511.39 754.908 491.053 741.941 475.13C728.973 460.171 711.366 452.139 689.129 452.139C665.042 452.139 646.503 460.096 631.694 476.02C616.884 491.944 609.448 511.382 609.448 535.271ZM1054.18 556.498H874.433C875.357 583.917 882.77 604.253 897.595 619.287C912.42 634.32 931.875 641.396 957.819 641.396C986.544 641.396 1012.48 632.555 1036.57 613.977V650.236C1014.33 666.152 984.68 673.228 947.617 673.228C911.479 673.228 883.679 662.607 863.306 640.506C842.934 618.404 832.732 587.44 832.732 547.642C832.732 509.61 843.858 479.543 866.088 455.669C888.317 431.795 916.118 420.291 949.474 420.291C982.83 420.291 1008.77 430.912 1026.37 451.256C1044.9 471.6 1053.25 499.894 1053.25 537.044V556.49H1054.17L1054.18 556.498ZM1012.5 523.775C1012.5 501.667 1007.01 483.985 995.822 471.6C984.633 459.214 968.946 453.028 949.498 453.028C930.05 453.028 914.292 459.221 900.392 472.475C887.424 485.743 879.079 502.542 875.373 523.768L1012.5 523.775ZM1076.43 656.437V629.907C1102.29 645.823 1127.39 652.899 1154.27 652.899C1182.06 652.899 1203.37 647.663 1217.26 636.093C1232.09 625.472 1238.58 609.564 1238.58 590.095C1238.58 572.406 1233.88 559.13 1223.75 548.525C1214.49 537.904 1193.18 523.843 1160.75 506.072C1124.62 485.728 1101.45 468.929 1092.19 455.661C1082.47 441.795 1077.31 425.473 1077.37 408.788C1077.37 384.907 1087.55 364.57 1107.02 347.757C1126.48 330.943 1152.38 323 1184.82 323C1206.14 323 1227.45 326.538 1248.76 333.621V358.303C1227.73 349.512 1205.01 344.994 1182.05 345.034C1157.96 345.034 1138.5 351.227 1124.62 362.723C1110.73 374.219 1103.3 389.252 1103.3 406.941C1103.3 424.629 1108 437.905 1118.13 448.511C1127.39 459.132 1148.7 472.393 1181.13 490.081C1214.48 507.77 1236.72 523.686 1247.84 537.837C1258.96 551.988 1264.51 567.904 1264.51 586.475C1264.51 612.129 1255.25 633.348 1235.79 650.154C1217.26 666.96 1190.39 674.836 1155.18 674.836C1143.14 674.836 1129.32 673.071 1112.56 669.6C1097.73 665.113 1085.68 660.76 1076.42 656.332L1076.43 656.437ZM1479.47 657.319C1460.94 667.94 1437.78 674.125 1411.83 674.125C1377.55 674.125 1349.76 662.63 1328.44 640.521C1307.13 617.529 1296.94 588.345 1296.94 551.195C1296.94 512.28 1308.99 481.338 1333.08 456.566C1357.18 431.795 1387.74 419.424 1424.81 419.424C1444.26 419.424 1462.79 422.962 1481.32 430.92V455.601C1463.21 445.016 1442.34 439.501 1421.1 439.685C1391.45 439.685 1367.36 450.306 1348.83 470.65C1330.3 490.994 1320.92 517.575 1320.92 550.38C1320.92 582.219 1329.26 606.983 1345.94 626.445C1362.62 645.906 1384.85 654.746 1412.65 654.746C1437.67 654.746 1459.9 648.553 1479.36 635.3V657.409L1479.47 657.319ZM1633.28 448.601C1625.87 443.365 1616.61 440.643 1606.4 440.643C1586.03 440.643 1569.34 450.366 1556.37 469.827C1542.47 489.273 1536 517.583 1536 553.843V667.932H1513.68V425.602H1535.91V479.55H1536.84C1542.32 460.979 1551.66 446.828 1564.63 436.215C1577.6 425.602 1591.51 421.256 1608.17 421.256C1617.44 421.256 1625.78 423.021 1633.19 425.744V448.735L1633.28 448.601ZM1672.19 364.585C1667.49 364.585 1662.93 362.82 1659.22 359.35C1655.52 355.879 1653.74 351.392 1653.74 346.081C1653.74 340.771 1655.59 336.358 1659.22 333.703C1662.93 330.165 1667.56 329.215 1672.19 329.215C1677.68 329.215 1681.45 330.98 1686.09 333.703C1689.8 337.241 1691.58 340.778 1691.58 346.081C1691.58 351.384 1689.73 355.805 1686.09 359.35C1681.39 362.887 1677.75 364.585 1672.19 364.585ZM1661.06 668.815V426.484H1684.23V668.815H1660.99H1661.06ZM1763.91 625.48H1762.98V780.25H1739.82V426.492H1762.98V476.902H1763.91C1773.17 459.214 1786.14 445.063 1802.82 435.332C1819.49 425.602 1838.02 421.181 1858.41 421.181C1890.85 421.181 1915.85 431.802 1934.39 453.021C1952.92 474.24 1961.26 503.432 1961.26 539.692C1961.26 580.379 1951.08 613.094 1929.76 637.858C1909.39 662.54 1881.57 675 1847.3 675C1810.24 674.118 1782.45 658.194 1763.91 625.472L1763.91 625.48ZM1762.98 535.279V566.243C1762.98 590.925 1771.32 611.344 1787.07 629.032C1802.82 646.721 1824.13 655.562 1850.07 655.562C1876 655.562 1897.32 644.941 1913.07 623.722C1928.81 602.503 1937.15 574.194 1937.15 539.706C1937.15 509.64 1929.74 484.883 1914.91 467.187C1900.09 449.491 1879.71 440.658 1855.61 440.658C1825.96 440.658 1802.8 450.381 1787.05 468.96C1771.3 487.538 1762.97 509.647 1762.97 535.286L1762.98 535.279ZM2102.99 665.27C2090.95 670.505 2079.83 673.228 2069.64 673.228C2031.65 673.228 2013.12 652.001 2013.12 608.666V445.938H1967.72V425.594H2013.12V362.805C2016.82 361.923 2020.53 360.15 2024.24 359.267C2027.96 358.385 2031.66 356.612 2035.37 355.73V426.484H2102.08V446.828H2035.37V606.901C2035.37 623.707 2038.15 636.085 2043.71 643.161C2049.26 650.236 2058.53 654.657 2071.5 654.657C2080.76 654.657 2090.96 652.001 2102.08 645.816V665.262H2103L2102.99 665.27Z" stroke="white" stroke-width="8" mask="url(#path-1-outside-1_1317_161)"/>
</svg>
